<svg width="537" height="358" viewBox="0 0 537 358" fill="none" xmlns="http://www.w3.org/2000/svg">
	<path d="M174.847 106.183H84.1729V44.1557H174.847V106.183ZM84.8889 105.467H174.131V44.8717H84.8889V105.467Z" fill="#EBEBEB" />
	<path d="M91.2612 48.151C91.2612 48.5079 91.1554 48.8567 90.9571 49.1534C90.7589 49.4501 90.4771 49.6814 90.1474 49.818C89.8177 49.9545 89.4549 49.9903 89.1049 49.9206C88.7549 49.851 88.4334 49.6792 88.1811 49.4268C87.9287 49.1745 87.7569 48.853 87.6873 48.503C87.6176 48.153 87.6534 47.7902 87.7899 47.4605C87.9265 47.1308 88.1578 46.849 88.4545 46.6508C88.7512 46.4525 89.1 46.3467 89.4569 46.3467C89.9354 46.3467 90.3944 46.5368 90.7328 46.8752C91.0711 47.2135 91.2612 47.6725 91.2612 48.151Z" fill="#A6A6A6" />
	<path d="M98.6289 48.151C98.6289 48.5079 98.5231 48.8567 98.3248 49.1534C98.1266 49.4501 97.8448 49.6814 97.5151 49.818C97.1854 49.9545 96.8226 49.9903 96.4726 49.9206C96.1226 49.851 95.8011 49.6792 95.5487 49.4268C95.2964 49.1745 95.1246 48.853 95.0549 48.503C94.9853 48.153 95.021 47.7902 95.1576 47.4605C95.2942 47.1308 95.5254 46.849 95.8222 46.6508C96.1189 46.4525 96.4677 46.3467 96.8246 46.3467C97.3031 46.3467 97.762 46.5368 98.1004 46.8752C98.4388 47.2135 98.6289 47.6725 98.6289 48.151Z" fill="#EBEBEB" />
	<path d="M106.004 48.151C106.005 48.5099 105.9 48.8611 105.702 49.1601C105.503 49.4591 105.22 49.6924 104.889 49.8304C104.558 49.9684 104.193 50.0048 103.841 49.9352C103.489 49.8655 103.165 49.6928 102.911 49.4391C102.658 49.1853 102.485 48.8619 102.415 48.5098C102.346 48.1578 102.382 47.7929 102.52 47.4616C102.658 47.1303 102.891 46.8475 103.19 46.649C103.489 46.4505 103.841 46.3453 104.199 46.3467C104.678 46.3467 105.137 46.5368 105.475 46.8752C105.814 47.2135 106.004 47.6725 106.004 48.151Z" fill="#A17BEA" />
	<path d="M174.489 51.3229H84.531V52.0389H174.489V51.3229Z" fill="#EBEBEB" />
	<path d="M471.493 268.65H470.777V178.563L489.916 152.444V103.627H490.632V152.673L471.493 178.799V268.65Z" fill="#EBEBEB" />
	<path d="M490.274 104.013C489.866 104.013 489.467 103.892 489.127 103.665C488.788 103.438 488.524 103.116 488.368 102.739C488.212 102.361 488.172 101.947 488.252 101.546C488.332 101.146 488.529 100.779 488.818 100.491C489.107 100.202 489.475 100.007 489.876 99.9279C490.276 99.8492 490.691 99.891 491.068 100.048C491.444 100.205 491.766 100.471 491.992 100.811C492.218 101.151 492.337 101.55 492.336 101.958C492.336 102.229 492.282 102.497 492.179 102.746C492.075 102.996 491.923 103.223 491.731 103.414C491.54 103.605 491.312 103.756 491.062 103.859C490.812 103.962 490.544 104.014 490.274 104.013ZM490.274 100.612C490.008 100.612 489.747 100.691 489.526 100.839C489.305 100.987 489.132 101.197 489.03 101.443C488.928 101.689 488.902 101.96 488.954 102.221C489.005 102.482 489.134 102.722 489.322 102.91C489.51 103.098 489.75 103.227 490.011 103.279C490.272 103.331 490.543 103.304 490.789 103.202C491.035 103.1 491.245 102.928 491.393 102.706C491.541 102.485 491.62 102.225 491.62 101.958C491.62 101.601 491.478 101.259 491.226 101.007C490.973 100.754 490.631 100.612 490.274 100.612Z" fill="#EBEBEB" />
	<path d="M476.426 268.65H475.71V181.721L475.775 181.621L494.849 155.594V121.527H495.565V155.83L476.426 181.95V268.65Z" fill="#EBEBEB" />
	<path d="M495.207 121.913C494.798 121.915 494.399 121.795 494.059 121.569C493.718 121.343 493.453 121.021 493.296 120.644C493.139 120.267 493.098 119.851 493.177 119.451C493.256 119.05 493.453 118.682 493.742 118.393C494.03 118.104 494.399 117.908 494.799 117.828C495.2 117.749 495.615 117.791 495.992 117.947C496.369 118.104 496.691 118.37 496.917 118.71C497.143 119.05 497.263 119.45 497.262 119.858C497.26 120.403 497.043 120.924 496.658 121.309C496.273 121.694 495.751 121.911 495.207 121.913ZM495.207 118.512C494.94 118.511 494.679 118.589 494.457 118.736C494.235 118.883 494.061 119.092 493.958 119.338C493.855 119.584 493.828 119.855 493.879 120.117C493.93 120.378 494.057 120.619 494.245 120.808C494.433 120.997 494.673 121.126 494.934 121.178C495.196 121.231 495.467 121.204 495.713 121.103C495.96 121.001 496.17 120.828 496.318 120.607C496.467 120.385 496.546 120.125 496.546 119.858C496.546 119.503 496.405 119.161 496.154 118.909C495.903 118.657 495.563 118.514 495.207 118.512Z" fill="#EBEBEB" />
	<path d="M466.746 149.501H466.03V268.65H466.746V149.501Z" fill="#EBEBEB" />
	<path d="M466.388 149.859C465.98 149.86 465.58 149.74 465.24 149.514C464.9 149.288 464.634 148.966 464.477 148.589C464.32 148.212 464.279 147.797 464.358 147.396C464.437 146.995 464.634 146.627 464.923 146.339C465.212 146.05 465.58 145.853 465.98 145.774C466.381 145.695 466.796 145.736 467.173 145.893C467.55 146.05 467.872 146.315 468.098 146.656C468.324 146.996 468.444 147.395 468.443 147.804C468.441 148.348 468.224 148.87 467.839 149.255C467.454 149.64 466.932 149.857 466.388 149.859ZM466.388 146.458C466.122 146.456 465.861 146.534 465.638 146.681C465.416 146.828 465.242 147.038 465.139 147.284C465.036 147.53 465.009 147.8 465.06 148.062C465.111 148.324 465.239 148.564 465.427 148.753C465.615 148.942 465.854 149.071 466.116 149.124C466.377 149.176 466.648 149.15 466.894 149.048C467.141 148.946 467.351 148.774 467.5 148.552C467.648 148.331 467.727 148.07 467.727 147.804C467.727 147.448 467.586 147.107 467.335 146.855C467.084 146.602 466.744 146.46 466.388 146.458Z" fill="#EBEBEB" />
	<path d="M462.171 268.65H461.455V208.184L448.467 183.675V139.656H449.183V183.504L462.171 208.012V268.65Z" fill="#EBEBEB" />
	<path d="M448.817 140.014C448.41 140.014 448.011 139.893 447.672 139.666C447.333 139.44 447.068 139.118 446.912 138.741C446.756 138.364 446.715 137.949 446.795 137.549C446.875 137.149 447.071 136.782 447.359 136.494C447.648 136.205 448.015 136.009 448.415 135.929C448.815 135.85 449.23 135.891 449.607 136.047C449.983 136.203 450.305 136.467 450.532 136.806C450.759 137.145 450.88 137.544 450.88 137.952C450.88 138.499 450.662 139.023 450.276 139.41C449.889 139.797 449.364 140.014 448.817 140.014ZM448.817 136.613C448.551 136.613 448.29 136.692 448.069 136.84C447.847 136.988 447.675 137.199 447.573 137.445C447.472 137.692 447.445 137.963 447.498 138.224C447.55 138.485 447.679 138.725 447.868 138.913C448.057 139.101 448.298 139.229 448.559 139.28C448.821 139.331 449.092 139.303 449.338 139.2C449.583 139.097 449.793 138.924 449.94 138.702C450.087 138.479 450.165 138.218 450.164 137.952C450.164 137.775 450.129 137.601 450.061 137.438C449.993 137.275 449.894 137.127 449.769 137.002C449.644 136.878 449.495 136.78 449.332 136.713C449.169 136.646 448.994 136.612 448.817 136.613Z" fill="#EBEBEB" />
	<path d="M457.624 268.65H456.908V210.812L441.593 183.718V154.685H442.309V183.525L457.624 210.626V268.65Z" fill="#EBEBEB" />
	<path d="M441.951 155.043C441.543 155.044 441.143 154.924 440.803 154.698C440.463 154.472 440.197 154.15 440.04 153.773C439.883 153.396 439.842 152.981 439.921 152.58C440 152.179 440.197 151.811 440.486 151.522C440.775 151.234 441.143 151.037 441.543 150.958C441.944 150.878 442.359 150.92 442.736 151.077C443.113 151.234 443.435 151.499 443.661 151.839C443.887 152.18 444.007 152.579 444.006 152.988C444.004 153.532 443.787 154.054 443.402 154.439C443.017 154.824 442.495 155.041 441.951 155.043ZM441.951 151.642C441.685 151.64 441.424 151.718 441.201 151.865C440.979 152.012 440.805 152.222 440.702 152.468C440.599 152.713 440.572 152.984 440.623 153.246C440.674 153.507 440.802 153.748 440.99 153.937C441.178 154.126 441.417 154.255 441.679 154.307C441.94 154.36 442.211 154.334 442.457 154.232C442.704 154.13 442.914 153.958 443.063 153.736C443.211 153.515 443.29 153.254 443.29 152.988C443.29 152.632 443.149 152.291 442.898 152.038C442.647 151.786 442.307 151.643 441.951 151.642Z" fill="#EBEBEB" />
	<path d="M68.8076 268.65H68.0916V221.752L48.9529 195.633V168.067H49.6689V195.396L68.8076 221.523V268.65Z" fill="#EBEBEB" />
	<path d="M49.3109 168.453C48.9025 168.455 48.5028 168.335 48.1626 168.109C47.8224 167.883 47.557 167.561 47.4 167.184C47.2431 166.807 47.2016 166.391 47.281 165.991C47.3603 165.59 47.5569 165.222 47.8457 164.933C48.1345 164.644 48.5026 164.448 48.9032 164.368C49.3039 164.289 49.7191 164.331 50.0962 164.488C50.4733 164.644 50.7953 164.91 51.0213 165.25C51.2474 165.59 51.3673 165.99 51.3658 166.398C51.3658 166.943 51.1494 167.466 50.764 167.851C50.3786 168.237 49.8559 168.453 49.3109 168.453ZM49.3109 165.052C49.0444 165.051 48.7834 165.129 48.5611 165.276C48.3388 165.423 48.1652 165.632 48.0622 165.878C47.9592 166.124 47.9316 166.395 47.9827 166.657C48.0338 166.918 48.1614 167.159 48.3494 167.348C48.5374 167.537 48.7772 167.666 49.0385 167.718C49.2998 167.771 49.5708 167.744 49.8172 167.643C50.0636 167.541 50.2743 167.368 50.4225 167.147C50.5707 166.925 50.6498 166.665 50.6498 166.398C50.6499 166.043 50.509 165.701 50.2581 165.449C50.0072 165.197 49.6667 165.054 49.3109 165.052Z" fill="#EBEBEB" />
	<path d="M63.8742 268.65H63.1582V224.91L44.0195 198.79V185.967H44.7355V198.554L63.8742 224.681V268.65Z" fill="#EBEBEB" />
	<path d="M44.3919 186.353C43.9838 186.353 43.5848 186.232 43.2455 186.005C42.9063 185.778 42.642 185.456 42.4861 185.079C42.3303 184.701 42.2898 184.286 42.37 183.886C42.4501 183.486 42.6472 183.119 42.9363 182.831C43.2254 182.542 43.5935 182.347 43.994 182.268C44.3945 182.189 44.8093 182.231 45.186 182.388C45.5627 182.545 45.8842 182.811 46.1099 183.151C46.3357 183.491 46.4554 183.89 46.454 184.298C46.4521 184.844 46.234 185.367 45.8475 185.752C45.461 186.137 44.9376 186.353 44.3919 186.353ZM44.3919 182.952C44.1257 182.952 43.8654 183.031 43.6441 183.179C43.4227 183.327 43.2502 183.537 43.1483 183.783C43.0464 184.029 43.0197 184.3 43.0717 184.561C43.1236 184.822 43.2518 185.062 43.4401 185.25C43.6283 185.438 43.8682 185.567 44.1293 185.619C44.3904 185.671 44.6611 185.644 44.907 185.542C45.153 185.44 45.3632 185.268 45.5111 185.046C45.659 184.825 45.738 184.565 45.738 184.298C45.738 183.941 45.5962 183.599 45.3437 183.347C45.0913 183.094 44.7489 182.952 44.3919 182.952Z" fill="#EBEBEB" />
	<path d="M73.5546 192.461H72.8386V268.65H73.5546V192.461Z" fill="#EBEBEB" />
	<path d="M73.1966 192.819C72.7884 192.819 72.3895 192.698 72.0502 192.471C71.711 192.244 71.4467 191.921 71.2908 191.544C71.1349 191.167 71.0945 190.752 71.1747 190.352C71.2548 189.952 71.4519 189.584 71.741 189.296C72.0301 189.008 72.3982 188.812 72.7987 188.733C73.1992 188.655 73.614 188.697 73.9907 188.854C74.3674 189.011 74.6889 189.276 74.9146 189.616C75.1404 189.956 75.2601 190.356 75.2587 190.764C75.2568 191.31 75.0387 191.832 74.6522 192.217C74.2657 192.603 73.7423 192.819 73.1966 192.819ZM73.1966 189.418C72.9304 189.418 72.6701 189.497 72.4488 189.645C72.2274 189.793 72.0549 190.003 71.953 190.249C71.8511 190.495 71.8244 190.765 71.8764 191.027C71.9283 191.288 72.0565 191.527 72.2448 191.716C72.433 191.904 72.6729 192.032 72.934 192.084C73.1951 192.136 73.4658 192.109 73.7117 192.008C73.9577 191.906 74.1679 191.733 74.3158 191.512C74.4637 191.29 74.5427 191.03 74.5427 190.764C74.5427 190.407 74.4009 190.065 74.1484 189.812C73.896 189.56 73.5536 189.418 73.1966 189.418Z" fill="#EBEBEB" />
	<path d="M78.1298 268.65H77.4138V229.492L77.4496 229.406L90.4021 204.984V161.136H91.1181V205.155L91.0823 205.234L78.1298 229.664V268.65Z" fill="#EBEBEB" />
	<path d="M90.7601 161.494C90.3522 161.494 89.9536 161.373 89.6144 161.146C89.2753 160.92 89.011 160.598 88.855 160.221C88.6989 159.844 88.6581 159.429 88.7376 159.029C88.8172 158.629 89.0136 158.262 89.302 157.974C89.5904 157.685 89.9578 157.489 90.3578 157.409C90.7578 157.33 91.1724 157.371 91.5492 157.527C91.926 157.683 92.2481 157.947 92.4746 158.286C92.7012 158.625 92.8222 159.024 92.8222 159.432C92.8222 159.979 92.6049 160.503 92.2182 160.89C91.8315 161.277 91.307 161.494 90.7601 161.494ZM90.7601 158.093C90.4935 158.093 90.233 158.172 90.0115 158.32C89.79 158.468 89.6175 158.679 89.5158 158.925C89.4141 159.172 89.3879 159.443 89.4404 159.704C89.4929 159.965 89.6218 160.205 89.8108 160.393C89.9998 160.581 90.2403 160.709 90.5019 160.76C90.7635 160.811 91.0343 160.783 91.2802 160.68C91.526 160.577 91.7357 160.404 91.8828 160.181C92.0298 159.959 92.1076 159.698 92.1062 159.432C92.1062 159.255 92.0713 159.081 92.0036 158.918C91.9358 158.755 91.8366 158.607 91.7115 158.482C91.5864 158.358 91.4379 158.26 91.2747 158.193C91.1114 158.126 90.9365 158.092 90.7601 158.093Z" fill="#EBEBEB" />
	<path d="M82.6764 268.65H81.9604V232.106L82.0034 232.02L97.2757 205.005V176.165H97.9917V205.198L97.9416 205.277L82.6764 232.292V268.65Z" fill="#EBEBEB" />
	<path d="M97.6337 176.523C97.2252 176.524 96.8256 176.404 96.4854 176.178C96.1452 175.952 95.8798 175.63 95.7228 175.253C95.5658 174.876 95.5244 174.461 95.6037 174.06C95.6831 173.659 95.8796 173.291 96.1684 173.002C96.4572 172.714 96.8253 172.517 97.226 172.438C97.6267 172.358 98.0419 172.4 98.419 172.557C98.796 172.714 99.118 172.979 99.3441 173.319C99.5701 173.66 99.69 174.059 99.6886 174.468C99.6867 175.012 99.4696 175.534 99.0846 175.919C98.6997 176.304 98.1781 176.521 97.6337 176.523ZM97.6337 173.122C97.3672 173.12 97.1062 173.198 96.8839 173.345C96.6616 173.492 96.488 173.702 96.385 173.948C96.282 174.193 96.2543 174.464 96.3054 174.726C96.3566 174.987 96.4842 175.228 96.6722 175.417C96.8601 175.606 97.1 175.735 97.3613 175.787C97.6226 175.84 97.8936 175.814 98.14 175.712C98.3864 175.61 98.597 175.438 98.7452 175.216C98.8935 174.995 98.9726 174.734 98.9726 174.468C98.9726 174.112 98.8318 173.771 98.5809 173.518C98.33 173.266 97.9894 173.123 97.6337 173.122Z" fill="#EBEBEB" />
	<path d="M491.176 91.469L496.188 83.414L493.725 81.8889C493.366 81.6659 493.077 81.3459 492.892 80.9658C492.707 80.5857 492.633 80.1611 492.679 79.7409C492.718 79.2636 492.732 78.7863 492.722 78.3089C492.71 77.8933 492.813 77.4824 493.02 77.122C493.227 76.7616 493.531 76.4661 493.897 76.2683L496.453 74.8936L491.892 66.588L489.336 67.9627C488.967 68.1567 488.551 68.2446 488.136 68.2168C487.72 68.189 487.32 68.0465 486.98 67.8052C486.593 67.5403 486.193 67.2897 485.777 67.0892C485.409 66.8934 485.102 66.5987 484.892 66.2382C484.682 65.8776 484.577 65.4657 484.589 65.0486L484.682 62.1416L475.209 61.8481L475.116 64.7622C475.1 65.1793 474.969 65.5837 474.736 65.9302C474.503 66.2767 474.179 66.5516 473.799 66.724C473.584 66.8243 473.376 66.9245 473.176 67.0391C472.975 67.1536 472.768 67.261 472.567 67.3828C472.213 67.6006 471.805 67.716 471.389 67.716C470.973 67.716 470.566 67.6006 470.211 67.3828L467.727 65.8434L462.715 73.8984L465.185 75.4378C465.545 75.6601 465.834 75.9801 466.019 76.3603C466.204 76.7405 466.277 77.1655 466.23 77.5858C466.19 78.062 466.176 78.54 466.187 79.0178C466.198 79.4348 466.094 79.8468 465.885 80.2082C465.677 80.5696 465.373 80.8663 465.006 81.0655L462.493 82.34L466.975 90.6957L469.531 89.3282C469.899 89.1332 470.314 89.044 470.73 89.0706C471.146 89.0971 471.546 89.2383 471.887 89.4785C472.275 89.7387 472.676 89.9777 473.09 90.1945C473.458 90.3903 473.765 90.6851 473.975 91.0456C474.185 91.4061 474.29 91.8181 474.278 92.2351L474.192 95.1421L483.665 95.4356L483.758 92.5287C483.774 92.1124 483.905 91.7088 484.138 91.3634C484.371 91.018 484.696 90.7446 485.076 90.574L485.698 90.259L486.307 89.9081C486.663 89.6904 487.072 89.5752 487.488 89.5752C487.905 89.5752 488.314 89.6904 488.67 89.9081L491.176 91.469ZM483.157 85.4904C481.802 86.2158 480.263 86.5234 478.734 86.3742C477.205 86.225 475.754 85.6257 474.566 84.6521C473.377 83.6786 472.504 82.3744 472.057 80.9046C471.609 79.4348 471.608 77.8654 472.052 76.3947C472.497 74.924 473.367 73.6181 474.554 72.6422C475.741 71.6663 477.19 71.0642 478.719 70.9119C480.248 70.7597 481.787 71.0642 483.143 71.7869C484.499 72.5097 485.61 73.6182 486.336 74.9724C486.816 75.8738 487.115 76.8613 487.213 77.8781C487.312 78.8949 487.209 79.9212 486.91 80.8982C486.611 81.8752 486.123 82.7837 485.473 83.5717C484.823 84.3597 484.023 85.0117 483.121 85.4904H483.157Z" fill="#EBEBEB" />
	<path d="M55.2608 163.076L60.9888 159.754L59.9721 157.993C59.8265 157.739 59.7547 157.45 59.7648 157.157C59.7749 156.865 59.8666 156.581 60.0294 156.339C60.2108 156.062 60.3755 155.775 60.5234 155.479C60.6563 155.214 60.861 154.992 61.1142 154.837C61.3674 154.683 61.6589 154.603 61.9554 154.606H63.9889V147.961H61.9554C61.6589 147.965 61.3674 147.884 61.1142 147.73C60.861 147.576 60.6563 147.353 60.5234 147.088C60.3755 146.792 60.2108 146.505 60.0294 146.229C59.8666 145.986 59.7749 145.702 59.7648 145.41C59.7547 145.118 59.8265 144.828 59.9721 144.575L60.9888 142.813L55.2608 139.491L54.2441 141.26C54.1003 141.508 53.8903 141.712 53.6375 141.849C53.3847 141.985 53.099 142.049 52.8121 142.033H51.8026C51.5167 142.048 51.2321 141.985 50.9797 141.85C50.7272 141.715 50.5166 141.513 50.3706 141.267L49.3467 139.491L43.6187 142.813L44.6354 144.582C44.781 144.835 44.8529 145.125 44.8427 145.417C44.8326 145.709 44.741 145.993 44.5781 146.236C44.3982 146.511 44.2333 146.795 44.0841 147.088C43.9512 147.353 43.7466 147.576 43.4934 147.73C43.2402 147.884 42.9487 147.965 42.6521 147.961H40.5972V154.606H42.6306C42.9272 154.603 43.2187 154.683 43.4719 154.837C43.7251 154.992 43.9298 155.214 44.0626 155.479C44.2118 155.772 44.3767 156.057 44.5566 156.331C44.7193 156.576 44.8108 156.86 44.821 157.154C44.8311 157.447 44.7594 157.738 44.6139 157.993L43.5972 159.754L49.3252 163.076L50.3491 161.308C50.4948 161.061 50.7051 160.858 50.9575 160.722C51.2098 160.585 51.4946 160.521 51.7811 160.534C51.9386 160.534 52.1033 160.534 52.268 160.534C52.4326 160.534 52.5973 160.534 52.762 160.534C53.0484 160.521 53.3328 160.587 53.585 160.723C53.8373 160.859 54.0477 161.061 54.194 161.308L55.2608 163.076ZM52.268 156.725C51.192 156.724 50.1407 156.403 49.2467 155.805C48.3528 155.206 47.6565 154.356 47.2457 153.361C46.8349 152.367 46.7282 151.273 46.939 150.218C47.1497 149.163 47.6686 148.194 48.4299 147.433C49.1912 146.673 50.1608 146.155 51.2162 145.946C52.2715 145.737 53.3653 145.845 54.3592 146.257C55.3531 146.669 56.2025 147.366 56.8001 148.261C57.3978 149.156 57.7167 150.208 57.7167 151.284C57.7177 151.999 57.5773 152.708 57.3038 153.369C57.0302 154.03 56.6287 154.63 56.1225 155.136C55.6162 155.642 55.0152 156.042 54.3537 156.315C53.6922 156.588 52.9834 156.727 52.268 156.725Z" fill="#EBEBEB" />
	<path d="M461.877 97.2973L458.562 91.5693L456.808 92.5645C456.553 92.71 456.263 92.7816 455.969 92.7715C455.676 92.7614 455.391 92.6699 455.147 92.5072C454.87 92.3257 454.584 92.1607 454.288 92.0132C454.023 91.8803 453.8 91.6756 453.646 91.4224C453.491 91.1692 453.411 90.8777 453.414 90.5812V88.5477H446.784V90.5812C446.787 90.8777 446.707 91.1692 446.553 91.4224C446.398 91.6756 446.176 91.8803 445.911 92.0132C445.613 92.1622 445.324 92.3272 445.044 92.5072C444.801 92.67 444.518 92.7617 444.225 92.7718C443.933 92.7819 443.644 92.7101 443.39 92.5645L441.629 91.5478L438.314 97.2758L440.082 98.2925C440.333 98.4428 440.538 98.6592 440.675 98.9181C440.811 99.1769 440.873 99.4683 440.856 99.7603C440.856 99.925 440.856 100.09 440.856 100.247C440.856 100.405 440.856 100.577 440.856 100.741C440.87 101.028 440.806 101.313 440.669 101.565C440.533 101.818 440.33 102.028 440.082 102.173L438.314 103.197L441.629 108.925L443.397 107.908C443.651 107.763 443.94 107.691 444.232 107.701C444.525 107.711 444.808 107.803 445.051 107.966C445.333 108.147 445.619 108.312 445.911 108.46C446.176 108.593 446.398 108.797 446.553 109.05C446.707 109.304 446.787 109.595 446.784 109.892V111.925H453.421V109.892C453.418 109.595 453.498 109.304 453.653 109.05C453.807 108.797 454.03 108.593 454.295 108.46C454.591 108.307 454.877 108.142 455.154 107.966C455.397 107.803 455.681 107.711 455.973 107.701C456.265 107.691 456.554 107.763 456.808 107.908L458.577 108.925L461.892 103.197L460.123 102.18C459.877 102.034 459.676 101.823 459.541 101.571C459.406 101.318 459.343 101.034 459.357 100.748C459.357 100.584 459.357 100.419 459.357 100.254C459.357 100.09 459.357 99.9321 459.357 99.7674C459.338 99.4753 459.4 99.1837 459.537 98.9247C459.673 98.6657 459.879 98.4494 460.13 98.2996L461.877 97.2973ZM455.526 100.24C455.526 101.317 455.207 102.369 454.609 103.264C454.011 104.159 453.16 104.856 452.166 105.268C451.171 105.68 450.076 105.787 449.021 105.577C447.965 105.366 446.995 104.847 446.234 104.085C445.474 103.324 444.956 102.353 444.747 101.297C444.538 100.241 444.646 99.1468 445.059 98.1526C445.472 97.1584 446.171 96.3091 447.067 95.712C447.963 95.1149 449.015 94.797 450.092 94.7984C450.806 94.7984 451.513 94.9392 452.173 95.2128C452.833 95.4863 453.432 95.8873 453.937 96.3926C454.442 96.898 454.842 97.498 455.115 98.1581C455.387 98.8183 455.527 99.5257 455.526 100.24Z" fill="#EBEBEB" />
	<path d="M70.526 214.134C65.9507 204.733 57.9459 199.907 48.9243 202.578C39.9027 205.249 38.5065 217.822 45.2369 221.001C51.9673 224.18 58.712 214.9 62.292 212.996C65.872 211.091 70.526 214.134 70.526 214.134Z" fill="#A17BEA" />
	<path d="M74.9508 239.144C74.9508 238.013 74.8864 236.874 74.8434 235.743C74.7671 233.48 74.6859 231.218 74.6 228.955C74.4639 224.824 74.0057 220.771 72.3159 216.948C70.8022 213.489 68.2726 210.573 65.0629 208.585C63.8653 207.854 62.5711 207.295 61.2179 206.924C60.0038 205.691 58.4558 204.84 56.7644 204.475C54.6755 204.051 52.5281 203.997 50.4207 204.318C50.408 204.322 50.3971 204.33 50.3893 204.341C50.3816 204.352 50.3774 204.365 50.3774 204.379C50.3774 204.392 50.3816 204.405 50.3893 204.416C50.3971 204.427 50.408 204.435 50.4207 204.439C52.4288 204.178 54.469 204.322 56.4207 204.862C57.2575 205.094 58.0684 205.41 58.8408 205.807C59.3397 206.067 59.8184 206.364 60.2728 206.695C57.7873 206.145 55.1921 206.382 52.8479 207.375C52.3542 207.268 51.8489 207.225 51.3443 207.246C50.6845 207.267 50.029 207.361 49.3896 207.525C48.0845 207.894 46.8364 208.441 45.6807 209.151C45.6163 209.187 45.6807 209.287 45.7452 209.251C46.8814 208.63 48.0982 208.17 49.361 207.883C49.9739 207.747 50.5962 207.656 51.2226 207.611C51.5713 207.603 51.9202 207.612 52.2679 207.64C49.6997 208.829 47.6351 210.889 46.4397 213.454C46.4397 213.525 46.5113 213.583 46.5399 213.511C47.2517 212.024 48.2895 210.716 49.5761 209.684C50.8628 208.653 52.3653 207.925 53.972 207.554C54.1725 207.504 54.373 207.475 54.5806 207.44C54.5077 207.741 54.4527 208.048 54.4159 208.356C54.3587 208.814 54.2799 209.265 54.1868 209.716C54.0054 210.649 53.7662 211.57 53.4708 212.473C53.1639 213.384 52.7979 214.273 52.3753 215.137C51.9713 216.053 51.4593 216.919 50.8503 217.714C50.793 217.779 50.9004 217.857 50.9433 217.786C51.4875 216.934 52.1176 216.153 52.6116 215.273C53.092 214.433 53.5061 213.556 53.8503 212.652C54.1957 211.738 54.4639 210.797 54.6522 209.838C54.7525 209.33 54.8312 208.821 54.8885 208.306C54.9503 208 54.9696 207.686 54.9458 207.375C56.0073 207.212 57.0857 207.188 58.1535 207.303C57.7525 209.552 57.3229 211.886 56.0627 213.833C56.0198 213.898 56.1343 213.962 56.1701 213.891C56.7572 212.857 57.2739 211.786 57.7167 210.683C58.1339 209.614 58.3944 208.49 58.49 207.346C60.3535 207.594 62.1523 208.196 63.7884 209.122C66.8695 210.915 69.33 213.605 70.841 216.833C72.4278 220.312 73.3158 224.068 73.4544 227.888C73.7551 232.7 73.8195 237.533 74.2993 242.323C74.2993 242.638 74.8219 242.745 74.8864 242.387C75.0101 241.311 75.0317 240.225 74.9508 239.144Z" fill="#1A1D2C" />
	<path d="M64.3827 207.84C64.0784 207.476 63.7269 207.153 63.3373 206.881C62.965 206.573 62.5783 206.272 62.1774 206C61.3866 205.448 60.5078 205.034 59.5783 204.776C59.5067 204.776 59.4781 204.876 59.5783 204.891C60.5073 205.144 61.3715 205.593 62.1129 206.208C62.4996 206.487 62.829 206.788 63.2228 207.103C63.5397 207.437 63.8927 207.735 64.2753 207.991C64.2952 208.005 64.32 208.011 64.3442 208.007C64.3683 208.003 64.3899 207.989 64.4041 207.969C64.4184 207.949 64.4241 207.925 64.4201 207.9C64.4161 207.876 64.4026 207.855 64.3827 207.84Z" fill="#1A1D2C" />
	<path d="M49.7835 211.22C49.0255 212.1 48.3248 213.028 47.6856 213.998C47.0568 214.971 46.5335 216.008 46.1248 217.091C46.1248 217.127 46.1248 217.141 46.1749 217.091C47.2211 215.044 48.4581 213.1 49.8694 211.284C49.9196 211.277 49.8265 211.22 49.7835 211.22Z" fill="#1A1D2C" />
	<path d="M59.6212 210.318C59.5249 210.906 59.3516 211.479 59.1057 212.022C58.8537 212.545 58.5617 213.048 58.2322 213.526C58.2322 213.526 58.2322 213.59 58.2895 213.568C59.0743 212.659 59.5725 211.538 59.7215 210.346C59.7501 210.275 59.6355 210.246 59.6212 210.318Z" fill="#1A1D2C" />
	<path d="M74.3137 214.37C74.3137 214.37 80.7577 206.229 93.2949 209.115C105.173 211.857 110.658 233.645 98.6506 236.251C86.6432 238.858 88.7626 218.695 84.3878 215.273C81.173 212.767 76.5548 213.304 74.3137 214.37Z" fill="#A17BEA" />
	<path d="M102.947 221.015C102.134 220.298 101.272 219.638 100.369 219.039C99.5237 218.456 98.6005 217.996 97.6267 217.671C97.1399 216.929 96.594 216.227 95.9942 215.573C94.8944 214.387 93.6224 213.373 92.2209 212.566H92.5932C93.2538 212.53 93.9159 212.53 94.5765 212.566C95.9104 212.65 97.2179 212.975 98.4357 213.526C98.5073 213.526 98.5575 213.447 98.4859 213.418C97.2501 212.886 95.9577 212.497 94.6338 212.258C93.9885 212.144 93.3344 212.086 92.6791 212.086C92.3283 212.086 91.9631 212.086 91.6337 212.151H91.4333C90.2938 211.575 89.0928 211.131 87.8533 210.826L88.2041 210.733C88.8164 210.598 89.4354 210.495 90.0585 210.425C91.3027 210.294 92.5585 210.32 93.7961 210.504C93.8748 210.504 93.8963 210.397 93.7961 210.389C92.5419 210.239 91.2777 210.189 90.0156 210.239C88.9565 210.265 87.903 210.402 86.8723 210.647C86.1201 210.509 85.3594 210.42 84.5955 210.382C80.235 210.203 75.4808 211.814 72.7958 215.394C70.1108 218.974 69.5881 223.764 69.1155 228.096C68.3833 234.122 68.2227 240.204 68.6358 246.261C68.6358 246.619 69.1657 246.555 69.18 246.218C69.3447 241.077 69.5237 235.943 70.0177 230.824C70.2397 228.447 70.4974 226.07 70.8912 223.721C71.1774 221.701 71.7563 219.733 72.6096 217.879C73.5358 215.98 75.0064 214.4 76.834 213.339C78.6648 212.294 80.7038 211.666 82.8055 211.499C84.6932 211.344 86.5935 211.524 88.4189 212.029C88.362 212.394 88.362 212.766 88.4189 213.132C88.4625 213.596 88.5537 214.054 88.691 214.499C88.8295 214.917 89.0044 215.322 89.2137 215.709C89.4499 216.139 89.7363 216.526 90.0013 216.934C90.0013 216.998 90.1445 216.934 90.0943 216.862C89.5812 216.129 89.2499 215.285 89.1277 214.399C89.0486 213.978 88.9984 213.552 88.9774 213.125C88.9774 212.802 88.9774 212.48 88.9774 212.158C90.9616 212.762 92.8148 213.734 94.4405 215.022C94.7412 215.265 95.0347 215.523 95.3211 215.788C94.9075 216.167 94.5506 216.603 94.2615 217.084C93.8059 217.716 93.4104 218.39 93.0801 219.096C92.5013 220.486 92.1112 221.948 91.9201 223.442C91.9245 223.455 91.9328 223.466 91.9437 223.473C91.9546 223.481 91.9676 223.485 91.981 223.485C91.9944 223.485 92.0074 223.481 92.0183 223.473C92.0292 223.466 92.0375 223.455 92.0419 223.442C92.2767 221.997 92.7613 220.604 93.4739 219.325C93.8061 218.692 94.1768 218.08 94.5837 217.492C94.7985 217.191 95.0133 216.891 95.2424 216.604C95.3641 216.454 95.5001 216.296 95.6147 216.125C97.0849 217.571 98.2851 219.268 99.1589 221.137C98.5657 221.76 98.0707 222.47 97.6911 223.242C97.2416 224.047 96.8515 224.885 96.524 225.748C95.9172 227.411 95.4174 229.111 95.0276 230.838C95.032 230.851 95.0402 230.862 95.0511 230.87C95.062 230.878 95.0751 230.882 95.0884 230.882C95.1018 230.882 95.1149 230.878 95.1258 230.87C95.1367 230.862 95.1449 230.851 95.1493 230.838C95.5311 229.102 96.1251 227.418 96.9178 225.826C97.2901 225.046 97.6911 224.273 98.1064 223.514C98.537 222.808 98.929 222.079 99.2806 221.33C100.115 223.152 100.6 225.114 100.713 227.115C100.713 227.194 100.834 227.187 100.834 227.115C100.604 223.975 99.6425 220.932 98.0276 218.23C98.7866 218.552 99.5527 218.867 100.29 219.261C101.228 219.76 102.101 220.374 102.889 221.086C102.925 221.158 103.004 221.065 102.947 221.015Z" fill="#1A1D2C" />
	<path d="M101.672 218.416C101.18 217.94 100.62 217.54 100.011 217.227C99.3935 216.95 98.754 216.725 98.0991 216.554C98.0275 216.554 97.9988 216.654 98.0991 216.669C98.7434 216.839 99.3622 217.094 99.9392 217.428C100.532 217.733 101.102 218.083 101.643 218.473C101.672 218.502 101.736 218.444 101.672 218.416Z" fill="#1A1D2C" />
	<path d="M80.4712 203.494C80.4712 203.494 81.6669 188.874 92.5358 184.162C101.615 180.203 106.813 190.406 100.412 196.649C95.228 201.676 86.8794 199.392 80.4712 203.494Z" fill="#A17BEA" />
	<path d="M98.3856 186.962C96.7314 187.631 95.1177 188.396 93.5526 189.253C92.2482 190.003 90.9927 190.836 89.7936 191.745C89.9726 191.38 90.1301 190.986 90.3163 190.628C90.5961 190.061 90.9043 189.509 91.2399 188.974C91.9062 187.868 92.7097 186.85 93.6314 185.945C93.6887 185.888 93.6314 185.809 93.5455 185.859C92.6295 186.77 91.7868 187.752 91.0251 188.795C90.6489 189.325 90.3046 189.878 89.9941 190.449C89.6759 190.972 89.4347 191.539 89.2781 192.131C89.2351 192.167 89.1922 192.189 89.1564 192.225C87.2588 193.737 85.5196 195.438 83.9654 197.301C83.9654 197.158 84.0227 197.015 84.0585 196.886C84.2661 196.17 84.4881 195.454 84.7172 194.738C85.1822 193.226 85.8442 191.781 86.6862 190.442C86.7291 190.377 86.6217 190.32 86.5788 190.384C85.7238 191.716 84.9629 193.106 84.3019 194.544C84.0142 195.243 83.775 195.961 83.5859 196.692C83.4314 197.172 83.3141 197.663 83.2351 198.16C82.7625 198.762 82.2971 199.37 81.8532 199.993C77.192 206.638 74.8435 214.671 74.2851 222.712C74.1192 225.111 74.0786 227.518 74.1633 229.922C74.1784 232.343 74.3915 234.76 74.8006 237.146C74.8006 237.297 75.0655 237.254 75.0655 237.103C75.0082 234.991 74.7934 232.886 74.7505 230.774C74.7075 228.662 74.7505 226.535 74.9509 224.423C75.2941 220.202 76.0911 216.03 77.3281 211.979C78.5916 207.833 80.4538 203.894 82.8556 200.287C83.3138 200.194 83.7649 200.072 84.216 199.95C84.6671 199.828 85.3043 199.671 85.8413 199.521C86.8864 199.256 87.9013 198.884 88.87 198.411C88.8766 198.407 88.8823 198.402 88.887 198.396C88.8916 198.39 88.895 198.383 88.897 198.376C88.899 198.369 88.8996 198.361 88.8986 198.353C88.8977 198.346 88.8952 198.339 88.8915 198.332C88.8877 198.325 88.8827 198.32 88.8767 198.315C88.8707 198.31 88.8638 198.307 88.8565 198.305C88.8492 198.303 88.8416 198.302 88.8341 198.303C88.8265 198.304 88.8193 198.307 88.8127 198.311C87.8516 198.831 86.8114 199.189 85.7339 199.37C84.889 199.542 84.0012 199.649 83.1491 199.843C83.9367 198.697 84.7745 197.587 85.6766 196.521C87.7499 196.709 89.8401 196.554 91.8629 196.062C92.9379 195.801 93.995 195.471 95.0276 195.074C96.1159 194.659 97.1756 194.115 98.2209 193.642C98.3069 193.606 98.2209 193.485 98.178 193.528C96.2307 194.591 94.1047 195.287 91.9058 195.583C89.966 195.891 88.0059 196.054 86.0418 196.069C86.8151 195.182 87.6098 194.315 88.4619 193.506C91.3259 190.785 94.7054 188.287 98.4859 186.983C98.493 187.055 98.4572 186.933 98.3856 186.962Z" fill="#1A1D2C" />
	<path d="M89.5358 187.012C89.0458 187.628 88.6007 188.279 88.2041 188.96C87.7995 189.677 87.4777 190.439 87.2446 191.229H87.2876C87.6528 190.513 87.9606 189.797 88.3258 189.081C88.6868 188.379 89.1212 187.716 89.6217 187.105C89.6719 187.034 89.586 186.948 89.5358 187.012Z" fill="#1A1D2C" />
	<path d="M72.0153 200.867C71.9509 201.497 70.3757 195.554 61.1822 190.284C52.8337 185.494 42.8669 173.029 51.0508 165.16C57.6595 158.809 75.0655 172.656 72.0153 200.867Z" fill="#A17BEA" />
	<path d="M78.3448 234.927C78.2184 228.742 77.7403 222.57 76.9128 216.44C76.1879 210.808 74.8876 205.266 73.0321 199.9C72.3161 197.967 71.6001 196.062 70.7194 194.172C70.7769 193.443 70.7769 192.71 70.7194 191.981C70.6693 191.043 70.5833 190.112 70.4974 189.182C70.4115 188.251 70.3184 187.313 70.211 186.382C70.1036 185.451 69.896 184.52 69.8602 183.59C69.8602 183.511 69.7241 183.525 69.7456 183.59C69.9272 184.566 70.0373 185.554 70.075 186.547C70.1466 187.449 70.1967 188.351 70.2253 189.26C70.254 190.17 70.2253 191.065 70.2253 191.974C70.2253 192.296 70.2253 192.647 70.2253 192.991C69.359 191.165 68.4353 189.368 67.4329 187.613C68.0559 183.804 67.2468 179.823 66.4663 176.093C66.4663 176.021 66.3375 176.057 66.3518 176.129C66.7335 178.075 66.9373 180.052 66.9604 182.036C66.9604 183.604 66.9174 185.165 66.9174 186.733C66.6955 186.353 66.4735 185.981 66.2444 185.609C65.0558 183.661 63.7837 181.752 62.4281 179.881C62.5392 178.977 62.5102 178.062 62.3422 177.167C62.1891 176.165 61.9666 175.174 61.6763 174.203C61.3855 173.232 61.0462 172.276 60.6596 171.339C60.2586 170.372 59.7288 169.456 59.3421 168.475C59.3421 168.396 59.1918 168.475 59.2348 168.525C59.7249 169.433 60.1116 170.394 60.3875 171.389C60.691 172.329 60.942 173.285 61.1393 174.253C61.3326 175.227 61.4901 176.193 61.6262 177.174C61.7193 177.819 61.7765 178.492 61.8839 179.143C59.9154 176.498 57.762 173.995 55.4399 171.654C55.3898 171.597 55.3111 171.654 55.3612 171.74C58.8507 175.679 61.9667 179.933 64.6692 184.449C64.7694 184.621 64.8697 184.792 64.9628 184.964C64.4616 184.649 63.8816 184.391 63.4019 184.127C62.514 183.633 61.619 183.146 60.724 182.695L58.1178 181.263C57.6739 181.012 57.23 180.754 56.7789 180.547C56.2268 180.315 55.6951 180.037 55.1893 179.716C55.1249 179.666 55.0462 179.773 55.1178 179.816C56.0056 180.303 56.786 181.026 57.6452 181.57C58.5044 182.115 59.3779 182.644 60.2658 183.138C61.8983 184.055 63.6739 184.707 65.2778 185.652C66.3947 187.606 67.4258 189.611 68.3709 191.652C67.3971 191.022 66.3947 190.435 65.3852 189.862C64.7336 189.497 64.0821 189.146 63.4233 188.795C62.7667 188.489 62.1469 188.11 61.5761 187.664C61.5188 187.613 61.44 187.664 61.4901 187.75C62.5618 188.715 63.7501 189.542 65.0272 190.213C66.2086 190.929 67.3971 191.566 68.6072 192.167C69.5905 194.32 70.4759 196.513 71.2635 198.747C75.1371 209.702 76.5548 221.33 77.235 232.886C77.4426 236.33 77.5429 239.767 77.5858 243.218C77.6288 246.669 77.4498 250.106 77.4569 253.543C77.4569 253.65 77.6216 253.672 77.6359 253.543C78.0512 250.493 78.1228 247.385 78.2589 244.306C78.3949 241.228 78.4164 238.056 78.3448 234.927Z" fill="#1A1D2C" />
	<path d="M61.6405 185.329C59.9635 184.586 58.3329 183.742 56.7574 182.802C55.1603 181.903 53.6116 180.921 52.1177 179.859C52.1177 179.859 52.0676 179.859 52.1177 179.902C53.5276 181.04 55.0132 182.08 56.5641 183.017C58.1818 183.931 59.8558 184.742 61.5761 185.444C61.6549 185.444 61.7121 185.358 61.6405 185.329Z" fill="#1A1D2C" />
	<path d="M64.3039 172.943C64.1679 172.406 64.0032 171.883 63.8242 171.36C63.8292 171.352 63.8319 171.342 63.8319 171.332C63.8319 171.322 63.8292 171.312 63.8242 171.303C63.7096 171.002 63.5879 170.709 63.4662 170.415L63.4232 170.308C63.4232 170.25 63.3731 170.2 63.3516 170.143C63.3158 170.143 63.3302 170.086 63.3516 170.143C63.3874 170.143 63.4089 170.344 63.4447 170.451C63.4558 170.507 63.4701 170.562 63.4877 170.616C64.0945 172.658 64.5492 174.742 64.8481 176.852C64.8481 176.916 64.9555 176.916 64.9555 176.852C64.8634 175.531 64.6453 174.222 64.3039 172.943Z" fill="#1A1D2C" />
	<path d="M88.0609 237.146L87.4021 244.922L85.3973 268.636H63.8815L61.8767 244.922L61.218 237.146H88.0609Z" fill="#37474F" />
	<path d="M88.0609 237.146L87.4021 244.922H61.8767L61.218 237.146H88.0609Z" fill="#1A1D2C" />
	<path d="M90.1731 234.032H59.113V241.492H90.1731V234.032Z" fill="#37474F" />
	<path d="M36.3154 268.636L94.3615 268.464L152.408 268.4L268.5 268.278L384.592 268.4L442.638 268.464L500.684 268.636L442.638 268.815L384.592 268.872L268.5 268.994L152.408 268.872L94.3615 268.808L36.3154 268.636Z" fill="#1A1D2C" />
	<path d="M436.724 60.2013H99.0659V286.071H436.724V60.2013Z" fill="#EBEBEB" />
	<path d="M434.268 62.9579H101.522V283.314H434.268V62.9579Z" fill="#1A1D2C" />
	<path d="M480.701 303.004H55.0891V318.505H480.701V303.004Z" fill="#DBDBDB" />
	<path d="M55.0891 303.004L99.073 286.071H436.724L480.708 303.004H55.0891Z" fill="#EBEBEB" />
	<path d="M102.997 296.997L131.379 286.071H404.418L432.8 296.997H102.997Z" fill="#1A1D2C" />
	<path d="M415.473 79.698H120.331V266.574H415.473V79.698Z" fill="white" />
	<path d="M415.473 79.698H120.08V86.8866H415.473V79.698Z" fill="#455A64" />
	<path d="M125.794 83.2923C125.794 83.6449 125.69 83.9896 125.494 84.2828C125.298 84.576 125.019 84.8045 124.694 84.9394C124.368 85.0744 124.009 85.1097 123.664 85.0409C123.318 84.9721 123 84.8023 122.751 84.553C122.501 84.3036 122.332 83.986 122.263 83.6401C122.194 83.2943 122.229 82.9358 122.364 82.61C122.499 82.2843 122.728 82.0058 123.021 81.8099C123.314 81.614 123.659 81.5095 124.011 81.5095C124.484 81.5095 124.938 81.6973 125.272 82.0316C125.606 82.366 125.794 82.8195 125.794 83.2923Z" fill="#C7C7C7" />
	<path d="M133.076 83.2923C133.076 83.6449 132.971 83.9896 132.775 84.2828C132.58 84.576 132.301 84.8045 131.975 84.9394C131.65 85.0744 131.291 85.1097 130.945 85.0409C130.599 84.9721 130.282 84.8023 130.032 84.553C129.783 84.3036 129.613 83.986 129.545 83.6401C129.476 83.2943 129.511 82.9358 129.646 82.6101C129.781 82.2843 130.009 82.0058 130.303 81.8099C130.596 81.614 130.94 81.5095 131.293 81.5095C131.527 81.5085 131.76 81.554 131.976 81.6433C132.193 81.7325 132.39 81.8638 132.556 82.0295C132.722 82.1953 132.853 82.3922 132.942 82.6089C133.031 82.8257 133.077 83.0579 133.076 83.2923Z" fill="white" />
	<path d="M140.336 83.2923C140.336 83.6449 140.231 83.9896 140.035 84.2828C139.84 84.576 139.561 84.8045 139.235 84.9394C138.91 85.0744 138.551 85.1097 138.205 85.0409C137.859 84.9721 137.542 84.8023 137.292 84.553C137.043 84.3036 136.873 83.986 136.805 83.6401C136.736 83.2943 136.771 82.9358 136.906 82.6101C137.041 82.2843 137.269 82.0058 137.563 81.8099C137.856 81.614 138.2 81.5095 138.553 81.5095C138.787 81.5085 139.02 81.554 139.236 81.6433C139.453 81.7325 139.65 81.8638 139.816 82.0295C139.982 82.1953 140.113 82.3922 140.202 82.6089C140.291 82.8257 140.337 83.0579 140.336 83.2923Z" fill="#A17BEA" />
	<path d="M415.474 86.8866H410.232V266.567H415.474V86.8866Z" fill="#DBDBDB" />
	<path d="M412.846 149.179C412.487 149.179 412.143 149.036 411.889 148.782C411.635 148.528 411.492 148.184 411.492 147.825V89.2924C411.492 88.9335 411.635 88.5893 411.889 88.3355C412.143 88.0817 412.487 87.9391 412.846 87.9391C413.205 87.9391 413.549 88.0817 413.803 88.3355C414.056 88.5893 414.199 88.9335 414.199 89.2924V147.825C414.199 148.184 414.056 148.528 413.803 148.782C413.549 149.036 413.205 149.179 412.846 149.179Z" fill="#A6A6A6" />
	<path d="M374.167 133.491H162.833V165.525H374.167V133.491Z" fill="white" />
	<path d="M374.525 165.876H162.475V133.133H374.525V165.876ZM163.191 165.16H373.809V133.849H163.191V165.16Z" fill="#DBDBDB" />
	<path d="M181.492 142.169C181.903 143.357 182.184 144.586 182.329 145.835C182.64 148.271 182.64 150.737 182.329 153.174C182.18 154.423 181.897 155.652 181.484 156.84C181.068 155.653 180.785 154.423 180.64 153.174C180.334 150.737 180.334 148.272 180.64 145.835C180.794 144.586 181.079 143.357 181.492 142.169Z" fill="#37474F" />
	<path d="M188.823 149.501C187.637 149.923 186.408 150.211 185.158 150.36C183.942 150.515 182.717 150.591 181.492 150.589C180.266 150.595 179.041 150.519 177.826 150.36C176.574 150.215 175.342 149.932 174.153 149.515C175.344 149.105 176.575 148.822 177.826 148.67C179.041 148.515 180.266 148.439 181.492 148.441C182.717 148.445 183.942 148.524 185.158 148.677C186.406 148.818 187.635 149.094 188.823 149.501Z" fill="#37474F" />
	<path d="M186.675 144.317C186.126 145.448 185.456 146.516 184.678 147.503C183.93 148.474 183.119 149.395 182.25 150.26C181.385 151.129 180.464 151.942 179.494 152.694C178.504 153.473 177.434 154.142 176.301 154.692C176.85 153.559 177.52 152.488 178.298 151.498C179.05 150.529 179.863 149.608 180.733 148.742C181.6 147.877 182.521 147.066 183.489 146.315C184.477 145.538 185.546 144.868 186.675 144.317Z" fill="#37474F" />
	<path d="M186.676 154.692C185.546 154.141 184.478 153.471 183.489 152.694C182.519 151.942 181.599 151.129 180.733 150.26C179.856 149.394 179.038 148.47 178.284 147.496C177.505 146.506 176.836 145.436 176.286 144.303C177.421 144.85 178.492 145.519 179.48 146.3C181.423 147.802 183.165 149.546 184.664 151.491C185.448 152.482 186.122 153.555 186.676 154.692Z" fill="#37474F" />
	<path d="M210.089 142.169C210.5 143.357 210.781 144.586 210.926 145.835C211.08 147.051 211.159 148.275 211.163 149.501C211.165 150.729 211.088 151.956 210.934 153.174C210.781 154.422 210.498 155.651 210.089 156.84C209.673 155.653 209.389 154.423 209.244 153.174C209.086 151.956 209.009 150.729 209.015 149.501C209.013 148.275 209.089 147.051 209.244 145.835C209.392 144.586 209.675 143.357 210.089 142.169Z" fill="#37474F" />
	<path d="M217.42 149.501C216.233 149.918 215.004 150.201 213.754 150.346C212.539 150.5 211.314 150.577 210.089 150.575C208.86 150.581 207.633 150.504 206.415 150.346C205.166 150.2 203.937 149.917 202.75 149.501C203.939 149.092 205.167 148.808 206.415 148.656C207.634 148.501 208.861 148.425 210.089 148.427C211.314 148.431 212.538 148.51 213.754 148.663C215.003 148.809 216.232 149.09 217.42 149.501Z" fill="#37474F" />
	<path d="M215.273 144.317C214.723 145.448 214.053 146.516 213.275 147.503C212.527 148.474 211.716 149.395 210.848 150.26C209.982 151.129 209.061 151.942 208.091 152.694C207.101 153.473 206.031 154.142 204.898 154.692C205.447 153.559 206.117 152.488 206.895 151.498C207.647 150.529 208.46 149.608 209.33 148.742C210.194 147.873 211.115 147.062 212.086 146.315C213.074 145.536 214.142 144.866 215.273 144.317Z" fill="#37474F" />
	<path d="M215.272 154.692C214.142 154.142 213.073 153.473 212.086 152.694C211.113 151.946 210.192 151.133 209.33 150.26C208.468 149.392 207.664 148.469 206.924 147.496C206.145 146.506 205.476 145.436 204.926 144.303C206.061 144.85 207.132 145.519 208.12 146.3C210.063 147.802 211.805 149.546 213.303 151.491C214.073 152.484 214.733 153.557 215.272 154.692Z" fill="#37474F" />
	<path d="M238.678 142.169C239.095 143.356 239.379 144.585 239.523 145.835C239.678 147.051 239.754 148.275 239.752 149.501C239.758 150.729 239.682 151.956 239.523 153.174C239.378 154.423 239.094 155.653 238.678 156.84C238.268 155.652 237.987 154.422 237.841 153.174C237.684 151.956 237.605 150.729 237.604 149.501C237.608 148.275 237.687 147.051 237.841 145.835C237.986 144.586 238.267 143.357 238.678 142.169Z" fill="#37474F" />
	<path d="M246.018 149.501C244.83 149.917 243.601 150.2 242.352 150.346C241.133 150.5 239.907 150.577 238.679 150.575C237.453 150.58 236.228 150.504 235.013 150.346C233.763 150.201 232.534 149.918 231.347 149.501C232.535 149.091 233.764 148.808 235.013 148.656C236.228 148.501 237.453 148.425 238.679 148.427C239.907 148.431 241.133 148.51 242.352 148.663C243.6 148.81 244.829 149.09 246.018 149.501Z" fill="#37474F" />
	<path d="M243.869 144.317C243.32 145.448 242.65 146.516 241.872 147.503C241.124 148.474 240.313 149.395 239.445 150.26C238.579 151.129 237.658 151.942 236.688 152.694C235.698 153.473 234.628 154.142 233.495 154.692C234.041 153.557 234.711 152.486 235.492 151.498C236.244 150.53 237.054 149.61 237.92 148.742C238.788 147.875 239.711 147.064 240.683 146.315C241.67 145.536 242.739 144.866 243.869 144.317Z" fill="#37474F" />
	<path d="M243.869 154.692C242.739 154.142 241.67 153.473 240.683 152.694C239.71 151.944 238.786 151.131 237.92 150.26C237.052 149.391 236.241 148.468 235.492 147.496C234.711 146.508 234.041 145.437 233.495 144.303C234.629 144.85 235.7 145.519 236.688 146.3C238.631 147.802 240.373 149.546 241.872 151.491C242.651 152.483 243.321 153.556 243.869 154.692Z" fill="#37474F" />
	<path d="M267.275 142.169C267.689 143.357 267.972 144.586 268.12 145.835C268.426 148.272 268.426 150.737 268.12 153.174C267.975 154.423 267.691 155.653 267.275 156.84C266.863 155.652 266.58 154.423 266.431 153.174C266.276 151.956 266.199 150.729 266.201 149.501C266.205 148.275 266.284 147.051 266.438 145.835C266.583 144.586 266.864 143.357 267.275 142.169Z" fill="#37474F" />
	<path d="M274.614 149.501C273.427 149.917 272.198 150.2 270.949 150.346C269.73 150.5 268.503 150.577 267.275 150.575C266.05 150.58 264.825 150.504 263.61 150.346C262.36 150.201 261.13 149.918 259.944 149.501C261.132 149.091 262.361 148.808 263.61 148.656C264.825 148.501 266.05 148.425 267.275 148.427C268.503 148.431 269.73 148.51 270.949 148.663C272.197 148.81 273.426 149.09 274.614 149.501Z" fill="#37474F" />
	<path d="M272.467 144.317C271.917 145.448 271.247 146.516 270.469 147.503C269.719 148.474 268.906 149.395 268.035 150.26C267.172 151.133 266.251 151.946 265.278 152.694C264.291 153.473 263.223 154.142 262.092 154.692C262.636 153.556 263.306 152.485 264.089 151.498C264.839 150.529 265.65 149.608 266.517 148.742C267.385 147.877 268.305 147.066 269.273 146.315C270.264 145.538 271.335 144.868 272.467 144.317Z" fill="#37474F" />
	<path d="M272.467 154.692C271.335 154.141 270.264 153.471 269.273 152.694C268.303 151.942 267.383 151.129 266.517 150.26C265.648 149.398 264.837 148.479 264.089 147.51C263.306 146.524 262.636 145.453 262.092 144.317C263.224 144.864 264.293 145.534 265.278 146.315C266.251 147.06 267.172 147.871 268.035 148.742C268.904 149.61 269.717 150.534 270.469 151.506C271.247 152.493 271.917 153.561 272.467 154.692Z" fill="#37474F" />
	<path d="M295.873 142.169C296.283 143.358 296.566 144.587 296.717 145.835C297.023 148.272 297.023 150.737 296.717 153.174C296.572 154.423 296.289 155.653 295.873 156.84C295.46 155.652 295.177 154.423 295.028 153.174C294.717 150.737 294.717 148.271 295.028 145.835C295.176 144.586 295.459 143.357 295.873 142.169Z" fill="#37474F" />
	<path d="M303.212 149.501C302.022 149.918 300.79 150.201 299.538 150.346C298.323 150.501 297.098 150.577 295.873 150.575C294.647 150.581 293.422 150.504 292.207 150.346C290.959 150.201 289.732 149.918 288.548 149.501C289.736 149.09 290.965 148.807 292.214 148.656C293.43 148.501 294.654 148.425 295.88 148.427C297.105 148.43 298.33 148.509 299.546 148.663C300.794 148.809 302.023 149.09 303.212 149.501Z" fill="#37474F" />
	<path d="M301.064 144.317C300.514 145.449 299.842 146.518 299.059 147.503C297.555 149.444 295.813 151.188 293.875 152.694C292.888 153.473 291.819 154.142 290.689 154.692C291.233 153.556 291.903 152.485 292.686 151.498C293.436 150.529 294.246 149.608 295.114 148.742C295.982 147.877 296.902 147.066 297.87 146.315C298.86 145.536 299.931 144.866 301.064 144.317Z" fill="#37474F" />
	<path d="M301.064 154.692C299.931 154.142 298.86 153.473 297.87 152.694C296.9 151.942 295.98 151.129 295.114 150.26C294.245 149.398 293.434 148.479 292.686 147.51C291.903 146.524 291.233 145.453 290.689 144.317C291.821 144.864 292.89 145.534 293.875 146.315C294.848 147.06 295.769 147.871 296.632 148.742C297.5 149.609 298.311 150.532 299.059 151.506C299.842 152.491 300.514 153.559 301.064 154.692Z" fill="#37474F" />
	<path d="M324.47 142.169C324.881 143.357 325.162 144.586 325.307 145.835C325.618 148.271 325.618 150.737 325.307 153.174C325.158 154.423 324.875 155.652 324.462 156.84C324.046 155.653 323.763 154.423 323.618 153.174C323.312 150.737 323.312 148.272 323.618 145.835C323.772 144.586 324.057 143.357 324.47 142.169Z" fill="#37474F" />
	<path d="M331.801 149.501C330.615 149.918 329.385 150.202 328.136 150.346C326.92 150.5 325.695 150.577 324.47 150.575C323.244 150.581 322.019 150.504 320.804 150.346C319.552 150.201 318.32 149.918 317.131 149.501C318.322 149.091 319.553 148.808 320.804 148.656C322.019 148.501 323.244 148.424 324.47 148.427C325.695 148.431 326.92 148.51 328.136 148.663C329.384 148.808 330.614 149.089 331.801 149.501Z" fill="#37474F" />
	<path d="M329.653 144.317C329.109 145.451 328.439 146.519 327.656 147.503C326.91 148.476 326.099 149.397 325.228 150.26C324.362 151.129 323.442 151.942 322.472 152.694C321.484 153.471 320.416 154.141 319.286 154.692C319.83 153.558 320.497 152.487 321.276 151.498C322.783 149.56 324.527 147.818 326.467 146.315C327.455 145.538 328.523 144.868 329.653 144.317Z" fill="#37474F" />
	<path d="M329.653 154.692C328.523 154.141 327.455 153.471 326.467 152.694C324.531 151.185 322.788 149.444 321.276 147.51C320.497 146.522 319.83 145.451 319.286 144.317C320.417 144.865 321.485 145.535 322.472 146.315C323.442 147.064 324.362 147.875 325.228 148.742C326.097 149.609 326.908 150.532 327.656 151.506C328.439 152.489 329.109 153.558 329.653 154.692Z" fill="#37474F" />
	<path d="M304.637 143.028V182.022H293.617V143.028C293.617 128.2 282.355 116.142 268.5 116.142C254.645 116.142 243.383 128.2 243.383 143.028V182.022H232.364V143.028C232.364 121.792 248.574 104.536 268.5 104.536C288.426 104.536 304.637 121.792 304.637 143.028Z" fill="#455A64" />
	<path d="M232.364 153.167L243.383 153.611V182.022H232.364V153.167Z" fill="#1A1D2C" />
	<path d="M304.636 156.109V182.022H293.617V155.658L304.636 156.109Z" fill="#1A1D2C" />
	<path d="M318.763 159.818H218.244V251.015H318.763V159.818Z" fill="#A17BEA" />
	<path opacity="0.1" d="M318.756 159.818H268.5V251.015H318.756V159.818Z" fill="black" />
	<path d="M272.753 208.757L276.956 228.712H259.099L263.309 208.757C261.663 207.731 260.395 206.197 259.698 204.387C259.002 202.576 258.913 200.589 259.447 198.724C259.98 196.859 261.107 195.218 262.655 194.05C264.204 192.882 266.091 192.251 268.031 192.251C269.971 192.251 271.858 192.882 273.407 194.05C274.955 195.218 276.082 196.859 276.615 198.724C277.149 200.589 277.06 202.576 276.364 204.387C275.667 206.197 274.399 207.731 272.753 208.757Z" fill="#1A1D2C" />
	<path d="M239.302 208.721C239.302 208.721 234.046 250.793 225.411 260.273C215.044 271.629 207.511 269.968 203.33 275.825C199.148 269.961 191.623 271.629 181.241 260.266C172.606 250.793 167.358 208.714 167.358 208.714C190.112 197.673 203.344 185.294 203.344 185.294C203.738 185.68 216.898 197.852 239.302 208.721Z" fill="#EBEBEB" />
	<path d="M203.344 185.301V275.818C199.163 269.953 191.638 271.622 181.256 260.259C172.621 250.786 167.372 208.707 167.372 208.707C190.112 197.673 203.344 185.294 203.344 185.294V185.301Z" fill="#DBDBDB" />
	<path d="M233.724 212.115C233.724 212.115 229.285 247.65 221.989 255.655C213.218 265.264 206.86 263.853 203.323 268.801C199.786 263.853 193.427 265.264 184.664 255.655C177.368 247.65 172.936 212.115 172.936 212.115C192.16 202.807 203.323 192.318 203.323 192.318C203.323 192.318 214.499 202.778 233.724 212.115Z" fill="#DBDBDB" />
	<path d="M172.943 212.115C172.943 212.115 177.382 247.65 184.678 255.655C193.435 265.257 199.764 263.853 203.344 268.786V192.332C202.993 192.647 191.888 202.922 172.943 212.115Z" fill="#C7C7C7" />
	<path d="M213.293 240.524C218.796 235.021 218.796 226.099 213.293 220.596C207.79 215.093 198.868 215.093 193.366 220.596C187.863 226.099 187.863 235.021 193.366 240.524C198.868 246.027 207.79 246.027 213.293 240.524Z" fill="#A17BEA" />
	<path d="M201.726 239.717L195.447 233.187L197.774 230.946L201.232 234.547L208.693 223.106L211.399 224.867L201.726 239.717Z" fill="white" />
	<path d="M154.718 279.205L156.39 270.646L256.374 290.171C257.287 290.35 258.092 290.884 258.611 291.655C259.131 292.427 259.323 293.374 259.144 294.287L258.818 295.96C258.64 296.873 258.106 297.678 257.334 298.198C256.562 298.717 255.615 298.909 254.702 298.731L154.718 279.205Z" fill="#A17BEA" />
	<path opacity="0.1" d="M156.382 270.637L154.709 279.203L166.782 281.561L168.455 272.995L156.382 270.637Z" fill="black" />
	<path d="M118.14 259.722L115.197 274.944C114.699 277.496 114.709 280.121 115.226 282.669C115.742 285.217 116.756 287.639 118.208 289.795C119.66 291.952 121.523 293.801 123.69 295.237C125.858 296.674 128.286 297.67 130.838 298.167C133.39 298.665 136.015 298.656 138.563 298.139C141.111 297.622 143.533 296.609 145.689 295.157C147.846 293.704 149.695 291.841 151.132 289.674C152.568 287.507 153.564 285.078 154.062 282.526L157.026 267.34C158.036 262.183 156.957 256.837 154.025 252.476C151.093 248.116 146.549 245.098 141.392 244.088C136.235 243.078 130.889 244.157 126.528 247.089C122.168 250.021 119.15 254.565 118.14 259.722ZM150.782 263.524C149.902 268.042 145.957 271.3 141.081 272.08C145.305 274.65 147.739 279.14 146.852 283.658C145.677 289.701 139.011 293.496 131.973 292.121C124.935 290.746 120.202 284.725 121.383 278.689C122.264 274.171 126.209 270.913 131.092 270.097C126.861 267.541 124.434 263.037 125.314 258.519C126.496 252.469 133.147 248.688 140.178 250.063C147.21 251.438 151.992 257.481 150.811 263.524H150.782Z" fill="#A17BEA" />
	<path d="M157.133 266.779L153.953 283.061C153.782 283.938 154.354 284.788 155.231 284.959L156.004 285.11C156.882 285.282 157.731 284.709 157.903 283.832L161.082 267.55C161.254 266.673 160.682 265.823 159.804 265.652L159.031 265.501C158.154 265.33 157.304 265.902 157.133 266.779Z" fill="#A17BEA" />
	<path d="M161.083 267.552L157.903 283.834C157.732 284.711 158.304 285.561 159.181 285.732L159.954 285.883C160.831 286.054 161.681 285.482 161.852 284.605L165.032 268.323C165.203 267.446 164.631 266.596 163.754 266.425L162.981 266.274C162.104 266.102 161.254 266.675 161.083 267.552Z" fill="#A17BEA" />
	<path d="M232.478 281.832L235.457 282.412L237.139 273.763L239.688 274.257L238.807 278.767L241.779 279.347L242.659 274.837L244.915 275.273L243.519 282.405L246.497 282.992L247.893 275.86L251.087 276.483L249.232 286.006L252.211 286.586L254.073 277.063L257.094 277.658L254.717 289.83L228.11 284.631L230.48 272.459L234.161 273.175L232.478 281.832Z" fill="#A17BEA" />
	<path d="M335.088 237.247L315.577 252.999C311.832 255.991 308.603 258.684 307.064 260.237C306.666 260.564 306.346 260.975 306.126 261.44C306.126 261.44 306.126 261.44 306.126 261.483C306.262 263.194 329.317 293.818 330.47 294.612C331.622 295.407 334 292.157 334.05 290.259C334.1 288.362 330.52 272.681 330.52 272.681L349.852 256.743L335.088 237.247Z" fill="#F7A9A0" />
	<path d="M319.558 249.784L315.555 253.013C311.811 256.006 308.582 258.698 307.042 260.252C306.683 260.614 306.368 261.018 306.104 261.455C306.104 261.455 306.104 261.455 306.104 261.498C306.24 263.209 329.295 293.832 330.448 294.627C331.601 295.422 333.978 292.171 334.028 290.274C334.078 288.376 330.498 272.696 330.498 272.696L334.608 269.467L319.558 249.784Z" fill="#EBEBEB" />
	<path d="M330.427 294.648C329.26 293.854 306.212 263.237 306.083 261.512C306.018 260.86 310.286 257.216 315.563 253.02L315.734 252.884L330.792 272.474L330.455 272.717C330.455 272.717 334.035 288.383 333.985 290.295C333.935 292.207 331.587 295.45 330.427 294.648Z" fill="#A17BEA" />
	<path d="M331.35 293.41C327.591 288.154 311.94 267.311 307.823 262.4C307.765 262.4 307.823 262.357 307.823 262.4C311.403 267.691 327.255 288.412 331.3 293.453C331.357 293.56 331.436 293.56 331.35 293.41Z" fill="#1A1D2C" />
	<path d="M331.666 274.421C330.513 272.109 328.336 269.853 325.716 269.409C325.615 269.409 325.594 269.531 325.665 269.588C327.749 271.049 329.669 272.729 331.393 274.6C331.42 274.63 331.456 274.649 331.495 274.654C331.534 274.659 331.574 274.65 331.607 274.628C331.639 274.606 331.664 274.573 331.674 274.536C331.685 274.498 331.682 274.457 331.666 274.421Z" fill="#1A1D2C" />
	<path d="M331.887 276.555C330.735 274.235 328.551 271.987 325.937 271.543C325.837 271.543 325.816 271.672 325.88 271.722C327.963 273.183 329.883 274.863 331.608 276.734C331.62 276.752 331.635 276.768 331.653 276.781C331.671 276.793 331.691 276.802 331.712 276.806C331.734 276.811 331.756 276.812 331.777 276.808C331.798 276.804 331.819 276.796 331.837 276.784C331.856 276.772 331.871 276.757 331.884 276.739C331.896 276.721 331.905 276.701 331.91 276.68C331.914 276.659 331.915 276.637 331.911 276.615C331.907 276.594 331.899 276.573 331.887 276.555Z" fill="#1A1D2C" />
	<path d="M332.102 278.682C330.957 276.369 328.773 274.121 326.16 273.67C326.059 273.67 326.031 273.798 326.102 273.849C328.184 275.311 330.104 276.991 331.83 278.861C331.842 278.878 331.857 278.894 331.875 278.906C331.893 278.918 331.912 278.926 331.933 278.931C331.954 278.935 331.976 278.935 331.997 278.931C332.018 278.927 332.038 278.919 332.056 278.907C332.074 278.895 332.089 278.88 332.101 278.862C332.113 278.845 332.121 278.825 332.126 278.804C332.13 278.783 332.13 278.761 332.126 278.74C332.122 278.719 332.114 278.699 332.102 278.682Z" fill="#1A1D2C" />
	<path d="M345.613 218.473C344.231 225.297 315.928 252.512 315.928 252.512L335.661 275.288C335.661 275.288 375.843 235.192 373.745 220.106C371.919 206.996 352.265 154.276 352.265 154.276H329.653C329.653 154.276 346.966 211.764 345.613 218.473Z" fill="#37474F" />
	<path d="M345.613 218.473C344.231 225.297 315.928 252.512 315.928 252.512L335.661 275.288C335.661 275.288 375.843 235.192 373.745 220.106C371.919 206.996 352.265 154.276 352.265 154.276H329.653C329.653 154.276 346.966 211.764 345.613 218.473Z" fill="#37474F" />
	<path d="M337.902 269.875C335.281 266.61 336.083 267.512 333.427 264.276C332.124 262.693 323.568 252.304 322.093 251.037C322.093 251.037 322.007 251.037 322.028 251.094C323.016 252.762 331.751 263.001 333.083 264.562C335.804 267.741 335.059 266.803 337.809 269.953C337.866 270.011 337.952 269.932 337.902 269.875Z" fill="#1A1D2C" />
	<path d="M348.427 215.151C348.098 213.447 347.711 211.75 347.375 210.053C346.635 206.587 345.854 203.134 345.033 199.692C343.401 192.862 341.628 186.069 339.713 179.315C337.787 172.542 335.747 165.775 333.391 159.131C333.105 158.308 332.804 157.491 332.503 156.675C332.503 156.662 332.498 156.649 332.489 156.64C332.479 156.63 332.466 156.625 332.453 156.625C332.44 156.625 332.427 156.63 332.418 156.64C332.408 156.649 332.403 156.662 332.403 156.675C334.444 163.334 336.542 169.971 338.446 176.659C340.351 183.346 342.105 190.034 343.766 196.764C344.597 200.143 345.37 203.537 346.129 206.931C346.501 208.599 346.845 210.275 347.217 211.943C347.659 213.641 347.977 215.369 348.169 217.113C348.221 218.765 347.756 220.392 346.838 221.767C345.986 223.156 344.99 224.459 344.024 225.769C342.091 228.39 323.661 248.932 323.066 249.49C323.016 249.533 323.066 249.598 323.138 249.555C325.608 247.335 341.246 230.409 343.229 227.788C344.217 226.492 345.169 225.182 346.093 223.85C347.033 222.648 347.791 221.314 348.341 219.891C348.776 218.344 348.806 216.712 348.427 215.151Z" fill="#1A1D2C" />
	<path d="M348.377 154.276L344.267 208.227C340.343 189.761 329.654 154.276 329.654 154.276H348.377Z" fill="#1A1D2C" />
	<path d="M338.668 265.357C338.668 265.357 343.558 289.157 343.558 289.178C343.623 293.968 343.766 298.171 344.038 300.341C344.044 300.855 344.172 301.36 344.41 301.815C345.842 302.761 384.17 303.355 385.516 302.925C386.862 302.496 385.745 298.629 384.27 297.426C382.795 296.224 368.232 289.429 368.232 289.429L363.105 265.643L338.668 265.357Z" fill="#F7A9A0" />
	<path d="M385.552 302.99C384.213 303.419 345.885 302.825 344.446 301.88C344.212 301.423 344.085 300.918 344.074 300.405C344.07 300.391 344.07 300.376 344.074 300.362C343.794 298.214 343.658 294.004 343.587 289.207L342.742 285.061H367.308L368.267 289.515C368.267 289.515 382.838 296.309 384.32 297.519C385.802 298.73 386.905 302.567 385.552 302.99Z" fill="#EBEBEB" />
	<path d="M385.552 302.99C384.205 303.419 345.885 302.825 344.446 301.88C343.887 301.529 343.651 295.937 343.558 289.178V288.963L368.282 289.071V289.493C368.282 289.493 382.845 296.281 384.32 297.491C385.795 298.701 386.898 302.567 385.552 302.99Z" fill="#A17BEA" />
	<path d="M385.143 301.5C378.699 301.243 352.616 300.784 346.215 301.042C346.164 301.042 346.164 301.078 346.215 301.085C352.608 301.479 378.678 301.701 385.143 301.608C385.28 301.601 385.28 301.508 385.143 301.5Z" fill="#1A1D2C" />
	<path d="M370.344 289.601C367.809 289.085 364.694 289.429 362.718 291.212C362.647 291.276 362.718 291.383 362.826 291.362C365.268 290.616 367.784 290.136 370.329 289.93C370.351 289.931 370.373 289.927 370.393 289.92C370.413 289.913 370.432 289.901 370.448 289.887C370.464 289.872 370.477 289.854 370.486 289.835C370.495 289.815 370.5 289.794 370.501 289.772C370.502 289.751 370.499 289.729 370.491 289.709C370.484 289.688 370.473 289.67 370.458 289.654C370.443 289.638 370.426 289.625 370.406 289.616C370.387 289.607 370.365 289.601 370.344 289.601Z" fill="#1A1D2C" />
	<path d="M372.155 290.732C369.628 290.216 366.506 290.56 364.537 292.343C364.466 292.414 364.537 292.522 364.645 292.493C367.085 291.748 369.598 291.268 372.141 291.061C372.185 291.063 372.227 291.048 372.26 291.018C372.292 290.988 372.311 290.947 372.313 290.904C372.315 290.86 372.299 290.817 372.27 290.785C372.24 290.753 372.199 290.734 372.155 290.732Z" fill="#1A1D2C" />
	<path d="M373.974 291.87C371.439 291.355 368.325 291.698 366.356 293.474C366.277 293.546 366.356 293.653 366.463 293.632C368.904 292.89 371.417 292.41 373.96 292.2C373.981 292.201 374.003 292.197 374.023 292.19C374.043 292.182 374.062 292.171 374.078 292.156C374.094 292.142 374.107 292.124 374.116 292.105C374.125 292.085 374.131 292.064 374.131 292.042C374.132 292.02 374.129 291.999 374.122 291.979C374.114 291.958 374.103 291.94 374.088 291.924C374.074 291.908 374.056 291.895 374.036 291.886C374.017 291.876 373.996 291.871 373.974 291.87Z" fill="#1A1D2C" />
	<path d="M350.124 154.277C349.242 157.999 348.592 161.772 348.176 165.575C347.711 170.315 347.117 174.511 346.487 175.033C345.856 175.556 342.191 177.897 340.988 178.613C340.988 178.613 352.143 212.437 355.021 223.721C359.196 240.06 369.191 289.099 369.191 289.099H342.556C342.556 289.099 334.458 242.423 330.914 226.857C327.878 213.518 316.25 173.501 316.25 173.501C315.023 170.416 314.472 167.103 314.634 163.787C314.796 160.471 315.667 157.228 317.188 154.277C317.188 154.277 350.124 154.262 350.124 154.277Z" fill="#37474F" />
	<path d="M368.217 283.944C364.029 283.944 365.231 283.873 361.057 283.894C359.009 283.894 345.549 283.994 343.644 284.345C343.633 284.345 343.622 284.35 343.614 284.358C343.606 284.366 343.601 284.377 343.601 284.388C343.601 284.399 343.606 284.41 343.614 284.418C343.622 284.427 343.633 284.431 343.644 284.431C345.563 284.717 359.017 284.388 361.064 284.338C365.253 284.231 364.05 284.216 368.224 284.066C368.237 284.061 368.247 284.052 368.254 284.041C368.262 284.029 368.265 284.016 368.264 284.002C368.263 283.989 368.258 283.976 368.25 283.966C368.242 283.955 368.23 283.948 368.217 283.944Z" fill="#1A1D2C" />
	<path d="M348.355 173.694C345.769 175.118 343.311 176.764 341.009 178.613C340.995 178.629 340.987 178.648 340.985 178.669C340.984 178.69 340.989 178.71 341 178.728C341.012 178.745 341.029 178.758 341.049 178.765C341.069 178.771 341.09 178.771 341.109 178.764C343.601 177.203 346.121 175.685 348.549 173.988C348.578 173.959 348.597 173.92 348.602 173.879C348.606 173.838 348.596 173.796 348.573 173.761C348.55 173.727 348.516 173.701 348.476 173.689C348.437 173.677 348.394 173.679 348.355 173.694Z" fill="#1A1D2C" />
	<path d="M346.322 155.293C346.322 155.2 346.136 155.207 346.15 155.293C346.614 158.271 346.927 161.27 347.088 164.279C347.181 165.668 347.253 173.437 344.783 173.251C344.367 173.251 344.067 172.864 343.945 172.27C343.834 171.482 343.819 170.684 343.902 169.892C343.902 168.26 343.902 166.635 343.773 165.002C343.583 161.988 343.084 159.001 342.284 156.088C342.284 156.067 342.275 156.047 342.261 156.032C342.246 156.018 342.226 156.009 342.205 156.009C342.184 156.009 342.164 156.018 342.149 156.032C342.135 156.047 342.126 156.067 342.126 156.088C342.841 160.224 343.243 164.407 343.329 168.604C343.329 170.63 342.806 173.759 344.919 173.737C347.031 173.716 347.661 168.525 347.704 167.129C347.757 163.14 347.293 159.162 346.322 155.293Z" fill="#1A1D2C" />
	<path d="M344.876 173.465C344.744 174.01 344.649 174.562 344.589 175.119C344.511 175.56 344.511 176.011 344.589 176.451C344.596 176.468 344.608 176.482 344.624 176.493C344.639 176.503 344.657 176.508 344.675 176.508C344.694 176.508 344.712 176.503 344.727 176.493C344.742 176.482 344.754 176.468 344.761 176.451C344.953 176.025 345.074 175.57 345.119 175.105C345.227 174.589 345.341 174.081 345.434 173.558C345.447 173.484 345.429 173.408 345.385 173.347C345.342 173.286 345.276 173.245 345.201 173.233C345.127 173.22 345.051 173.238 344.99 173.281C344.929 173.325 344.888 173.391 344.876 173.465Z" fill="#1A1D2C" />
	<path d="M320.052 173.329C322.346 173.202 324.614 172.773 326.797 172.055C329.275 171.263 331.522 169.876 333.341 168.017C334.37 166.994 335.22 165.806 335.854 164.501C335.854 164.451 335.954 164.501 335.94 164.544C335.551 165.808 334.951 166.996 334.164 168.06C333.351 169.112 332.385 170.039 331.3 170.809C329.152 172.384 326.625 173.36 323.976 173.637C322.669 173.84 321.338 173.821 320.038 173.58C319.83 173.551 319.887 173.344 320.052 173.329Z" fill="#1A1D2C" />
	<path d="M339.441 269.266C339.377 268.65 339.291 268.035 339.205 267.419C339.04 266.245 338.84 265.063 338.654 263.889C338.296 261.519 337.887 259.156 337.465 256.801C336.634 252.096 335.668 247.407 334.651 242.738C334.071 240.103 333.405 237.497 332.696 234.862C332.653 234.676 332.396 234.769 332.424 234.941C332.854 237.333 333.269 239.717 333.756 242.101C334.243 244.485 334.73 246.834 335.188 249.204C336.119 253.886 336.985 258.591 337.916 263.273C338.174 264.598 338.417 265.922 338.675 267.247C338.804 267.906 338.933 268.572 339.076 269.223C339.219 269.875 339.42 270.526 339.527 271.185C339.527 271.249 339.634 271.221 339.627 271.185C339.527 270.548 339.52 269.932 339.441 269.266Z" fill="#1A1D2C" />
	<path d="M357.814 233.874C356.926 229.457 355.73 225.096 354.527 220.75C352.107 212.015 349.258 203.401 346.415 194.788C345.594 192.31 344.773 189.831 343.952 187.349C343.544 186.11 341.539 179.415 341.289 178.757C341.284 178.746 341.277 178.736 341.268 178.729C341.258 178.723 341.247 178.719 341.235 178.719C341.223 178.719 341.212 178.723 341.202 178.729C341.193 178.736 341.185 178.746 341.181 178.757C341.761 181.033 342.549 184.356 343.215 186.633C343.88 188.909 344.589 191.079 345.284 193.291C346.644 197.652 348.026 202.012 349.344 206.38C351.957 215.022 354.549 223.664 356.668 232.442C357.263 234.905 357.857 237.361 358.394 239.831C358.931 242.302 359.403 244.779 359.919 247.249C359.919 247.321 360.048 247.299 360.041 247.249C359.597 242.767 358.716 238.313 357.814 233.874Z" fill="#1A1D2C" />
	<path d="M341.253 256.994C339.785 248.567 338.031 240.182 336.083 231.848C334.136 223.514 331.952 215.151 329.553 206.895C327.155 198.64 324.498 190.427 321.677 182.337C320.241 178.519 319.033 174.62 318.062 170.659C317.181 166.721 316.737 162.46 317.653 158.487C317.877 157.478 318.181 156.489 318.563 155.53C318.563 155.465 318.491 155.408 318.462 155.472C315.262 162.94 317.338 171.103 319.78 178.463C321.112 182.494 322.537 186.496 323.861 190.535C325.186 194.573 326.503 198.84 327.749 203.022C330.205 211.306 332.489 219.64 334.53 228.032C336.57 236.423 338.396 244.872 340 253.364C341.604 261.855 342.957 270.44 344.332 278.997C344.511 280.114 344.647 281.23 344.797 282.347C344.797 282.412 344.897 282.412 344.89 282.347C343.83 273.863 342.713 265.414 341.253 256.994Z" fill="#1A1D2C" />
	<path d="M340.708 118.913C343.845 130.369 352.88 144.188 357.176 146.121C360.914 147.782 378.255 141.367 384.8 137.2C386.661 136.011 378.964 125.293 376.723 126.037C369.399 128.479 361.429 132.088 360.814 131.88C359.568 131.458 351.792 121.92 346.129 115.505C339.778 108.295 339.463 114.352 340.708 118.913Z" fill="#F7A9A0" />
	<path d="M397.165 127.484C398.64 126.868 409.989 126.51 409.989 124.047C409.989 121.584 395.54 122.271 395.54 122.271L397.165 127.484Z" fill="#F7A9A0" />
	<path d="M375.399 127.77C377.382 125.307 379.129 122.651 380.855 122.164C382.043 121.827 394.895 122.379 396.9 122.257C398.905 122.135 406.072 122.321 406.208 124.083C406.444 126.567 397.967 126.546 397.065 127.82C393.936 132.209 382.029 138.704 382.029 138.704L375.399 127.77Z" fill="#F7A9A0" />
	<path d="M406.43 124.119C406.299 123.661 406.006 123.267 405.607 123.009C404.668 122.495 403.612 122.236 402.542 122.257C400.976 122.116 399.4 122.104 397.831 122.221C397.831 122.221 397.831 122.271 397.831 122.278C399.012 122.278 400.18 122.278 401.354 122.407C402.431 122.447 403.5 122.611 404.54 122.894C405.007 123.014 405.431 123.262 405.764 123.61C405.88 123.741 405.959 123.899 405.996 124.07C406.032 124.24 406.024 124.417 405.972 124.584C405.635 125.665 403.495 126.016 402.507 126.209C401.218 126.496 399.879 126.746 398.583 127.011C398.526 127.011 398.583 127.111 398.583 127.097C399.929 126.832 401.347 126.732 402.7 126.489C403.83 126.378 404.913 125.984 405.85 125.343C406.054 125.216 406.217 125.033 406.32 124.816C406.423 124.599 406.461 124.357 406.43 124.119Z" fill="#1A1D2C" />
	<path d="M374.905 126.252L385.072 141.138C385.072 141.138 369.32 149.014 363.291 148.892C357.563 148.756 355.48 147.911 353.668 146.2C352.544 145.14 346.165 136.126 340.959 121.14C336.592 108.581 343.057 110.4 348.835 117.388C351.699 120.854 360.893 131.186 361.351 131.15C361.809 131.114 374.905 126.252 374.905 126.252Z" fill="#A17BEA" />
	<path d="M371.776 128.672C373.301 130.878 374.761 133.126 376.201 135.388C376.917 136.491 379.552 141.002 380.318 142.283C380.318 142.334 380.21 142.42 380.174 142.369C379.38 141.238 376.509 136.734 375.814 135.618C374.382 133.333 373.029 131.042 371.711 128.715C371.709 128.711 371.707 128.706 371.706 128.701C371.705 128.696 371.705 128.691 371.706 128.686C371.707 128.681 371.709 128.676 371.711 128.672C371.714 128.668 371.718 128.664 371.722 128.662C371.726 128.659 371.731 128.657 371.736 128.656C371.741 128.655 371.746 128.655 371.751 128.656C371.756 128.657 371.761 128.659 371.765 128.662C371.769 128.664 371.773 128.668 371.776 128.672Z" fill="#1A1D2C" />
	<path opacity="0.1" d="M366.341 148.513C365.343 148.758 364.319 148.886 363.291 148.892C357.563 148.756 355.48 147.911 353.668 146.2C352.551 145.14 346.165 136.133 340.966 121.14C340.15 119.064 339.666 116.873 339.534 114.646C339.534 114.51 339.534 114.367 339.534 114.238C339.527 114.111 339.527 113.985 339.534 113.858C339.546 113.755 339.563 113.652 339.584 113.55C339.657 113.083 339.878 112.652 340.215 112.319C343.773 117.087 360.456 139.62 366.341 148.513Z" fill="black" />
	<path d="M403.666 120.145H365.117V122.214H403.666V120.145Z" fill="#C7C7C7" />
	<path d="M403.666 120.145V122.214H380.253L381.836 120.145H403.666Z" fill="#A6A6A6" />
	<path d="M383.54 122.214H409.323L422.741 99.4309H396.957L383.54 122.214Z" fill="#C7C7C7" />
	<path d="M402.177 110.808C401.697 111.861 402.048 112.956 402.965 113.286C403.478 113.404 404.016 113.334 404.481 113.088C404.947 112.842 405.308 112.437 405.499 111.947C405.979 110.894 405.628 109.799 404.712 109.469C404.199 109.352 403.661 109.423 403.196 109.669C402.731 109.914 402.369 110.319 402.177 110.808Z" fill="white" />
	<path d="M314.703 162.124C314.797 162.224 355.064 161.938 355.43 161.522C355.931 160.935 346.394 117.403 342.205 112.054C341.31 110.908 338.389 110.622 335.911 110.951C335.266 111.032 334.629 111.168 334.007 111.359H333.942C333.44 111.517 332.967 111.759 332.546 112.075C325.708 117.653 320.102 136.956 318.806 142.749C316.658 152.3 314.367 161.744 314.703 162.124Z" fill="#EBEBEB" />
	<path d="M333.513 111.46C333.513 111.46 336.141 129.36 336.763 134.028C337.386 138.696 336.763 163.205 336.763 163.205L311.496 165.353C311.496 165.353 316.794 149.057 316.844 148.026C316.844 148.026 321.033 128.443 325.358 120.36C327.289 116.758 330.093 113.698 333.513 111.46Z" fill="#A17BEA" />
	<path d="M341.926 111.775C341.926 111.775 345.341 129.904 345.642 131.4C345.943 132.897 350.317 162.36 350.317 162.36L356.64 162.496L353.21 149.035C353.21 149.035 345.871 114.56 341.926 111.775Z" fill="#A17BEA" />
	<path d="M340.501 117.567C338.582 117.789 334.945 115.118 333.928 112.29C333.864 112.09 334.436 110.25 335.024 107.994C335.374 106.612 335.74 105.073 335.962 103.641C336.004 103.347 344.596 107.221 344.596 107.221C343.799 108.928 343.215 110.727 342.857 112.577C342.839 112.777 342.839 112.978 342.857 113.178V113.278C342.828 114.431 342.563 117.338 340.501 117.567Z" fill="#F7A9A0" />
	<path d="M342.828 113.192C342.831 113.226 342.831 113.259 342.828 113.293C342.518 113.282 342.209 113.248 341.904 113.192C336.642 112.24 336.291 105.402 336.284 103.684C337.845 104.164 344.604 107.264 344.604 107.264C343.807 108.974 343.222 110.775 342.864 112.627C342.839 112.814 342.827 113.003 342.828 113.192Z" fill="#1A1D2C" />
	<path d="M336.062 92.2208C334.68 95.2996 335.21 104.751 337.222 107.092C340.143 110.493 345.506 111.46 348.542 107.808C351.484 104.278 350.582 91.9702 348.277 89.7793C344.883 86.5573 338.095 87.6814 336.062 92.2208Z" fill="#F7A9A0" />
	<path d="M343.021 98.9154C343.021 98.9154 342.971 98.9154 342.978 98.9727C343.028 99.6099 342.978 100.34 342.42 100.584C342.42 100.584 342.42 100.627 342.42 100.619C343.121 100.483 343.171 99.524 343.021 98.9154Z" fill="#1A1D2C" />
	<path d="M342.42 98.2781C341.396 98.2781 341.417 100.312 342.37 100.333C343.322 100.355 343.279 98.2996 342.42 98.2781Z" fill="#1A1D2C" />
	<path d="M346.945 98.8796C346.945 98.8796 346.995 98.9154 346.995 98.9368C346.995 99.5741 347.074 100.312 347.654 100.512C347.654 100.512 347.654 100.555 347.654 100.548C346.945 100.462 346.83 99.524 346.945 98.8796Z" fill="#1A1D2C" />
	<path d="M347.503 98.2137C348.527 98.1206 348.635 100.176 347.682 100.261C346.73 100.347 346.644 98.2853 347.503 98.2137Z" fill="#1A1D2C" />
	<path d="M341.596 97.376C341.876 97.2973 342.119 97.1827 342.391 97.0825C342.685 97.0207 342.95 96.8619 343.143 96.6314C343.19 96.5484 343.208 96.4524 343.195 96.358C343.182 96.2637 343.139 96.1761 343.071 96.1087C342.914 95.9962 342.73 95.9276 342.537 95.91C342.345 95.8924 342.151 95.9264 341.976 96.0085C341.596 96.126 341.274 96.3814 341.074 96.7245C341.037 96.8032 341.023 96.8907 341.033 96.9771C341.043 97.0634 341.078 97.1451 341.132 97.213C341.187 97.2808 341.259 97.332 341.341 97.3609C341.423 97.3897 341.511 97.3949 341.596 97.376Z" fill="#1A1D2C" />
	<path d="M348.291 96.481C348.013 96.4286 347.738 96.3617 347.468 96.2805C347.17 96.2476 346.892 96.1195 346.673 95.9154C346.614 95.8381 346.583 95.7438 346.583 95.6469C346.583 95.5499 346.614 95.4556 346.673 95.3784C346.817 95.2515 346.993 95.1648 347.181 95.1271C347.37 95.0894 347.565 95.102 347.747 95.1636C348.133 95.2356 348.48 95.4471 348.721 95.7578C348.77 95.8309 348.797 95.9165 348.8 96.0046C348.802 96.0926 348.78 96.1796 348.735 96.2553C348.69 96.3311 348.624 96.3925 348.546 96.4324C348.467 96.4724 348.379 96.4892 348.291 96.481Z" fill="#1A1D2C" />
	<path d="M342.814 104.808C342.964 104.958 343.121 105.159 343.351 105.18C343.599 105.177 343.843 105.118 344.067 105.009C344.067 105.009 344.102 105.009 344.067 105.044C343.975 105.17 343.852 105.269 343.71 105.33C343.568 105.392 343.411 105.415 343.257 105.395C343.128 105.364 343.01 105.295 342.919 105.197C342.829 105.099 342.77 104.976 342.749 104.844C342.742 104.801 342.785 104.787 342.814 104.808Z" fill="#1A1D2C" />
	<path d="M343.458 102.896C343.619 103.144 343.829 103.356 344.076 103.518C344.322 103.681 344.599 103.791 344.89 103.841C345.149 103.881 345.412 103.881 345.67 103.841C345.72 103.849 345.771 103.849 345.821 103.841H345.957C345.991 103.835 346.022 103.818 346.046 103.792C346.069 103.766 346.083 103.733 346.086 103.698C346.089 103.677 346.089 103.655 346.086 103.634V103.577C346.086 103.083 346.036 102.338 346.036 102.338C346.215 102.424 347.138 102.825 347.117 102.567C347.032 100.356 346.725 98.1583 346.2 96.0085C346.2 95.9933 346.194 95.9787 346.183 95.968C346.173 95.9572 346.158 95.9512 346.143 95.9512C346.128 95.9512 346.113 95.9572 346.102 95.968C346.092 95.9787 346.086 95.9933 346.086 96.0085C346.15 98.0491 346.573 100.068 346.673 102.123C346.345 101.975 345.998 101.874 345.642 101.822C345.57 101.822 345.778 103.254 345.756 103.483C345.355 103.53 344.948 103.495 344.561 103.38C344.173 103.266 343.813 103.074 343.501 102.818C343.472 102.803 343.422 102.846 343.458 102.896Z" fill="#1A1D2C" />
	<path d="M345.405 103.627C345.14 103.977 344.79 104.255 344.389 104.436C344.161 104.526 343.911 104.543 343.673 104.486C343.164 104.357 343.15 103.892 343.236 103.491C343.285 103.277 343.36 103.071 343.458 102.875C344.011 103.326 344.693 103.59 345.405 103.627Z" fill="#1A1D2C" />
	<path d="M344.396 104.436C344.168 104.526 343.918 104.543 343.68 104.486C343.171 104.357 343.157 103.892 343.243 103.491C343.513 103.497 343.773 103.593 343.982 103.765C344.191 103.936 344.337 104.172 344.396 104.436Z" fill="#FF9BBC" />
	<path d="M335.274 100.39C335.274 100.39 332.99 94.7196 333.77 91.7984C334.121 90.4738 336.105 89.8652 336.105 89.8652C336.051 89.2956 336.157 88.7223 336.409 88.2091C336.662 87.696 337.052 87.2629 337.537 86.9582C339.377 85.7124 343.186 86.679 343.186 86.679C343.186 86.679 346.279 83.4713 349.587 85.4832C352.895 87.4952 349.931 91.1325 349.931 91.1325C349.931 91.1325 350.933 93.1874 347.518 94.111C344.102 95.0347 338.109 92.6003 338.109 92.6003C338.046 94.8228 337.653 97.0235 336.942 99.1302C336.805 99.4721 336.577 99.77 336.283 99.9921C335.989 100.214 335.64 100.352 335.274 100.39Z" fill="#1A1D2C" />
	<path d="M343.816 86.815C343.076 86.3666 342.253 86.072 341.396 85.9486C340.635 85.8234 339.858 85.8234 339.097 85.9486C338.418 86.0288 337.773 86.2915 337.231 86.7088C336.689 87.1261 336.27 87.6824 336.019 88.3186C335.91 88.6534 335.87 89.0065 335.901 89.3571C335.932 89.7076 336.033 90.0484 336.198 90.3592C336.198 90.3592 336.248 90.3592 336.233 90.3592C335.582 89.2064 336.233 87.7028 337.25 86.994C338.435 86.2629 339.845 85.988 341.217 86.2207C342.097 86.3545 342.958 86.5949 343.78 86.9367C343.788 86.9391 343.797 86.9398 343.805 86.9389C343.813 86.9381 343.821 86.9355 343.828 86.9316C343.836 86.9276 343.842 86.9222 343.847 86.9157C343.853 86.9092 343.857 86.9018 343.859 86.8938C343.861 86.8858 343.862 86.8774 343.861 86.8691C343.86 86.8608 343.858 86.8528 343.854 86.8455C343.85 86.8382 343.844 86.8317 343.838 86.8265C343.831 86.8213 343.824 86.8174 343.816 86.815Z" fill="#1A1D2C" />
	<path d="M351.864 87.5883C351.778 87.0917 351.571 86.6242 351.259 86.228C350.948 85.8318 350.543 85.5192 350.081 85.3186C349.037 84.7998 347.849 84.6484 346.709 84.889C345.562 85.1337 344.502 85.6799 343.637 86.4713C343.637 86.5214 343.637 86.4713 343.637 86.4713C344.412 85.7759 345.361 85.3025 346.383 85.1009C347.405 84.8993 348.462 84.9769 349.444 85.3257C349.901 85.4486 350.32 85.6828 350.665 86.0074C351.009 86.332 351.268 86.7369 351.417 87.1858C351.567 87.6348 351.603 88.1138 351.522 88.5802C351.441 89.0465 351.246 89.4855 350.954 89.858C350.269 90.7316 349.351 91.3942 348.305 91.7697C348.305 91.7697 348.305 91.8198 348.305 91.8055C349.284 91.5095 350.172 90.9728 350.89 90.2446C351.232 89.8963 351.495 89.4793 351.663 89.0213C351.831 88.5633 351.899 88.0748 351.864 87.5883Z" fill="#1A1D2C" />
	<path d="M337.436 100.147C337.436 100.147 335.661 96.9321 334.222 97.5407C332.782 98.1493 333.899 102.646 335.432 103.412C335.622 103.522 335.833 103.594 336.051 103.621C336.27 103.649 336.492 103.632 336.703 103.572C336.915 103.511 337.113 103.409 337.284 103.271C337.456 103.133 337.598 102.962 337.701 102.767L337.436 100.147Z" fill="#F7A9A0" />
	<path d="M334.573 98.808C334.573 98.808 334.573 98.808 334.573 98.8509C335.059 99.1592 335.475 99.5666 335.793 100.047C336.111 100.526 336.325 101.068 336.42 101.636C336.366 101.518 336.288 101.413 336.19 101.328C336.093 101.243 335.978 101.18 335.853 101.143C335.729 101.106 335.598 101.097 335.47 101.115C335.341 101.134 335.219 101.179 335.11 101.25C335.11 101.25 335.11 101.321 335.11 101.314C335.314 101.272 335.526 101.294 335.717 101.377C335.908 101.461 336.068 101.601 336.176 101.779C336.348 102.081 336.492 102.397 336.606 102.725C336.649 102.832 336.835 102.796 336.806 102.674C336.985 101.242 336.09 99.1302 334.573 98.808Z" fill="#1A1D2C" />
	<path d="M328.436 115.584C318.298 126.968 310.672 143 310.744 146.78C310.844 150.933 316.128 165.561 321.162 172.434C321.813 173.315 325.737 172.943 329.038 171.117C332.539 169.191 335.41 165.754 334.723 164.73C332.138 160.885 326.016 145.992 326.073 143.665C326.124 141.517 331.143 128.329 333.054 120.703C334.923 113.364 333.155 110.264 328.436 115.584Z" fill="#F7A9A0" />
	<path d="M315.04 171.296L333.921 162.074C333.921 162.074 326.496 145.506 326.496 143.716C326.496 141.926 331.379 127.921 333.219 121.448C335.059 114.975 334.35 107.701 326.288 117.488C318.226 127.276 311.181 141.832 310.379 145.699C309.577 149.565 315.04 171.296 315.04 171.296Z" fill="#A17BEA" />
	<path d="M327.441 138.961C327.828 137.735 328.229 136.51 328.644 135.288C329.109 133.921 329.589 132.56 330.076 131.207C330.563 129.854 331.114 128.594 331.644 127.29C331.644 127.197 331.844 127.29 331.816 127.355C331.186 129.095 330.599 130.856 330.011 132.618C330.455 131.816 330.899 131.021 331.372 130.233C331.382 130.224 331.394 130.218 331.407 130.217C331.421 130.215 331.434 130.217 331.446 130.224C331.458 130.23 331.467 130.24 331.473 130.252C331.479 130.264 331.481 130.277 331.479 130.291C330.949 131.264 330.391 132.217 329.825 133.155C329.689 133.577 329.546 134.007 329.403 134.429C328.608 136.792 327.849 139.169 327.169 141.589C327 142.125 326.887 142.677 326.832 143.236C326.803 143.873 326.898 144.51 327.112 145.112C327.455 146.222 327.828 147.317 328.229 148.405C329.016 150.603 329.875 152.766 330.77 154.914C331.794 157.362 332.961 159.775 334.121 162.16C334.121 162.16 333.405 162.346 333.405 162.36C333.405 162.374 333.348 162.36 333.362 162.324C333.377 162.289 333.806 162.088 333.821 162.088C332.639 160.026 331.515 158 330.52 155.83C329.525 153.661 328.658 151.534 327.863 149.286C327.455 148.14 327.061 146.995 326.703 145.835C326.297 144.76 326.186 143.595 326.381 142.463C326.646 141.274 327.076 140.114 327.441 138.961Z" fill="#1A1D2C" />
	<path d="M314.718 165.976C315.387 165.614 316.075 165.289 316.78 165.002C317.395 164.716 318.004 164.422 318.627 164.143C319.973 163.534 321.319 162.919 322.672 162.317C324.026 161.716 325.372 161.107 326.725 160.52C328.078 159.933 329.41 159.303 330.785 158.794C330.835 158.794 330.871 158.852 330.828 158.88C329.575 159.654 328.236 160.312 326.918 160.95C325.601 161.587 324.305 162.203 322.98 162.797C321.656 163.391 320.267 163.971 318.899 164.522C318.24 164.787 317.574 165.031 316.901 165.281C316.203 165.583 315.485 165.839 314.753 166.048C314.745 166.048 314.736 166.047 314.729 166.042C314.721 166.038 314.715 166.032 314.711 166.024C314.707 166.016 314.706 166.008 314.707 165.999C314.708 165.99 314.712 165.982 314.718 165.976Z" fill="#1A1D2C" />
</svg>
