<svg width="219" height="160" viewBox="0 0 219 160" fill="none" xmlns="http://www.w3.org/2000/svg">
	<path d="M201.326 46.7226C205.749 58.9827 199.881 73.9298 186.204 88.2938C172.573 102.609 151.397 116.092 125.894 125.293C100.392 134.493 75.485 137.636 55.8538 135.32C36.1563 132.997 22.0973 125.238 17.6743 112.978C13.2512 100.718 19.1187 85.771 32.796 71.407C46.4272 57.0914 67.6034 43.6083 93.1058 34.4079C118.608 25.2074 143.515 22.0652 163.146 24.3808C182.844 26.7042 196.903 34.4624 201.326 46.7226Z" stroke="#6A3CC3" stroke-width="2" />
	<path d="M103.227 27C108.129 25.9848 111.985 22.1292 113 17.2275C114.015 22.1292 117.871 25.9848 122.773 27C117.871 28.0152 114.015 31.8708 113 36.7725C111.985 31.8708 108.129 28.0152 103.227 27Z" fill="#A17BEA" stroke="#6A3CC3" stroke-width="0.515789" />
	<path d="M103.094 129C108.089 128.02 112.02 124.089 113 119.094C113.98 124.089 117.911 128.02 122.906 129C117.911 129.98 113.98 133.911 113 138.906C112.02 133.911 108.089 129.98 103.094 129Z" fill="#A17BEA" stroke="#6A3CC3" stroke-width="0.463158" />
</svg>
