<svg width="236" height="194" viewBox="0 0 236 194" fill="none" xmlns="http://www.w3.org/2000/svg">
<path d="M109.784 52.867C109.08 64.7236 108.809 76.6548 109.293 88.4349C109.293 88.4349 110.644 88.2368 111.43 87.9125C112.817 87.3401 114.322 86.9754 115.753 86.5279C116.6 86.2634 117.625 86.2227 118.4 85.7455C118.88 85.4509 118.705 82.4768 118.703 82.034C118.688 79.1948 118.728 76.3434 118.924 73.4906C119.054 71.6161 119.424 69.7862 119.259 67.9185C119.037 65.4326 118.811 62.9401 118.502 60.4684C118.161 57.7438 117.69 55.1171 117.562 52.3545C117.557 52.2586 117.658 49.7642 117.976 50.0861C118.798 50.9176 119.32 51.9782 119.996 52.9086C121.36 54.7863 122.836 56.5582 124.087 58.5132C127.429 63.7415 130.927 68.8674 135.061 73.5753C136.223 74.8983 137.763 76.2937 138.545 77.8728C138.881 78.5512 139.034 78.7084 139.901 78.4613C143.85 77.3358 147.714 75.507 151.429 73.7842C152.752 73.1712 154.073 72.6374 155.355 71.9547C155.63 71.8076 156.319 71.6434 155.744 71.4246C154.955 71.1246 154.125 70.6193 153.446 70.1651C150.807 68.3994 148.37 66.2856 145.953 64.2756C139.502 58.9142 133.542 53.0496 126.932 47.8489C122.92 44.6934 119.451 41.0597 115.638 37.7136C115.45 37.5482 113.266 34.8589 112.46 35.7383C112.18 36.0431 112.096 36.5645 112.014 36.9215L112.005 36.9604C111.759 38.0418 111.513 39.1189 111.24 40.198C110.174 44.4067 110.036 48.6275 109.784 52.867Z" fill="#6934D0"/>
<path d="M164.148 94.6734C163.444 106.531 163.173 118.462 163.657 130.241C163.657 130.241 165.008 130.043 165.793 129.719C167.181 129.146 168.686 128.782 170.117 128.335C170.964 128.07 171.989 128.029 172.764 127.552C173.243 127.257 173.069 124.283 173.067 123.841C173.053 121.002 173.092 118.15 173.289 115.297C173.418 113.423 173.788 111.592 173.622 109.725C173.401 107.239 173.175 104.747 172.865 102.275C172.525 99.55 172.053 96.9235 171.925 94.1616C171.921 94.0657 172.021 91.5706 172.34 91.8922C173.162 92.7238 173.684 93.7851 174.359 94.7157C175.723 96.5928 177.2 98.3651 178.45 100.32C181.793 105.548 185.29 110.674 189.425 115.382C190.587 116.705 192.128 118.101 192.909 119.679C193.244 120.358 193.398 120.515 194.266 120.268C198.214 119.142 202.077 117.313 205.793 115.591C207.115 114.978 208.437 114.445 209.718 113.761C209.994 113.615 210.684 113.45 210.107 113.231C209.319 112.931 208.489 112.425 207.81 111.971C205.171 110.206 202.734 108.092 200.316 106.083C193.866 100.72 187.906 94.8557 181.296 89.655C177.284 86.4995 173.815 82.8665 170.002 79.5198C169.813 79.3546 167.63 76.6657 166.824 77.5447C166.544 77.8499 166.459 78.3715 166.378 78.7277L166.369 78.7665C166.123 79.8486 165.877 80.925 165.604 82.0042C164.537 86.2138 164.4 90.4337 164.148 94.6734Z" fill="#6934D0"/>
<path d="M55.746 97.2388C55.3415 101.927 54.0298 105.281 54.5696 109.878C57.8552 108.522 60.9692 106.733 64.2607 105.27C65.324 104.797 66.4094 104.372 67.4848 103.928C68.133 103.661 67.9056 102.665 67.913 102.143C67.9559 99.0853 67.5203 96.1004 67.8725 93.0161C68.1418 90.6643 68.3242 88.3063 68.5039 85.9549C68.6638 83.8586 68.7515 81.7615 68.6082 79.6856C68.6011 79.5814 68.3716 77.4293 68.7079 77.6687C71.6955 79.8029 73.5535 83.5822 75.7501 86.3647C78.8223 90.2561 82.158 94.0404 85.5188 97.7151C86.8228 99.141 87.2766 98.8624 89.1644 98.0834L94.5482 95.8617C95.2198 95.5846 96.1028 95.3616 96.711 94.9575C97.4181 94.4884 91.226 88.0853 90.823 87.6805C88.6341 85.4807 86.5612 83.212 84.2559 81.1087C81.3408 78.45 78.0437 76.2302 75.4951 73.2367C70.9541 67.9022 67.7641 63.4204 64.2974 57.3878C62.9614 55.0627 61.6566 56.6128 61.4192 58.2185C60.8573 62.012 60.7824 65.842 60.5021 69.6364C60.1905 73.8602 59.4208 78.0855 58.5796 82.2849C57.5873 87.241 56.176 92.2475 55.746 97.2388Z" fill="#6934D0"/>
<path d="M110.109 139.045C109.705 143.733 108.394 147.088 108.934 151.684C112.219 150.328 115.333 148.539 118.625 147.076C119.688 146.604 120.773 146.178 121.849 145.734C122.496 145.467 122.27 144.47 122.277 143.949C122.319 140.891 121.884 137.906 122.236 134.822C122.505 132.47 122.689 130.113 122.868 127.761C123.028 125.665 123.115 123.568 122.972 121.492C122.965 121.387 122.736 119.235 123.072 119.475C126.059 121.61 127.918 125.389 130.114 128.171C133.186 132.062 136.522 135.846 139.883 139.522C141.187 140.947 141.64 140.669 143.528 139.89L148.913 137.668C149.584 137.391 150.467 137.168 151.075 136.764C151.781 136.294 145.59 129.892 145.187 129.487C142.998 127.287 140.926 125.018 138.619 122.915C135.704 120.257 132.408 118.036 129.859 115.043C125.318 109.709 122.128 105.227 118.661 99.1936C117.326 96.8691 116.021 98.4186 115.783 100.025C115.222 103.818 115.146 107.649 114.866 111.442C114.555 115.667 113.784 119.892 112.944 124.091C111.951 129.047 110.54 134.053 110.109 139.045Z" fill="#C9BDE1"/>
<path d="M-1.05941 122.219C-1.33365 126.635 -2.54245 128.345 -1.61852 134.535C-0.551355 134.606 6.42037 131.068 6.36954 130.722C6.26435 130.008 6.48686 128.997 6.49874 128.245C6.51795 127.031 6.62917 125.849 6.36844 124.668C5.60127 121.191 5.93251 118.084 6.31372 114.503L6.31639 114.477C6.82367 109.717 8.20766 105.048 8.68966 100.287C8.73901 99.7999 8.4133 97.6914 9.17714 98.4902C9.62023 98.9535 10.3059 99.2369 10.7841 99.688C14.2218 102.93 16.2014 107.134 19.1049 110.728C21.9764 114.283 25.3646 117.442 27.8068 121.313C28.4558 122.341 29.3749 122.715 30.715 122.215C32.3818 121.593 34.1103 120.927 35.6132 119.976C36.6217 119.336 37.5568 118.58 38.5961 117.986C39.6226 117.399 42.2387 116.655 41.6881 115.32C41.4787 114.813 41.0435 114.339 40.654 113.943C39.2267 112.496 37.8707 110.979 36.4488 109.522C31.8789 104.84 28.2505 99.4638 23.3858 95.016C20.6076 92.4758 17.7219 90.0793 14.6445 87.8477C11.7261 85.7318 8.4189 84.0169 5.63959 81.7655C5.27178 81.4673 2.57424 78.4657 1.87169 79.9087C-1.17501 86.1618 -0.600369 92.9659 -0.636554 99.415C-0.679257 107.024 -0.58504 114.583 -1.05941 122.219Z" fill="#C9BDE1"/>
<path d="M53.3043 164.025C53.0301 168.441 51.8213 170.151 52.7453 176.341C53.8127 176.413 60.7841 172.874 60.7333 172.528C60.6281 171.814 60.8506 170.803 60.8625 170.051C60.8817 168.837 60.9929 167.656 60.7322 166.474C59.965 162.997 60.2962 159.89 60.6775 156.31L60.6801 156.283C61.1874 151.523 62.5714 146.854 63.0534 142.094C63.1028 141.606 62.777 139.498 63.5409 140.296C63.984 140.76 64.6697 141.043 65.1478 141.494C68.5856 144.736 70.5651 148.94 73.4686 152.534C76.3402 156.089 79.7283 159.249 82.1707 163.119C82.8193 164.147 83.7384 164.521 85.0789 164.021C86.7455 163.399 88.4739 162.733 89.9773 161.782C90.9853 161.142 91.9208 160.386 92.9601 159.792C93.986 159.206 96.6028 158.461 96.0522 157.126C95.8428 156.619 95.4073 156.145 95.0176 155.75C93.5905 154.302 92.2348 152.785 90.8126 151.328C86.2424 146.646 82.6139 141.27 77.7497 136.822C74.9711 134.282 72.0853 131.886 69.0083 129.654C66.0899 127.538 62.7827 125.823 60.0033 123.572C59.6355 123.273 56.938 120.272 56.2355 121.715C53.1887 127.968 53.7634 134.772 53.7272 141.221C53.6845 148.83 53.7788 156.389 53.3043 164.025Z" fill="#6934D0"/>
<path d="M202.861 38.0714C206.17 41.0089 208.232 41.3688 211.942 46.4087C211.236 47.212 203.798 49.6201 203.59 49.3388C203.161 48.7582 202.291 48.1985 201.751 47.6735C200.882 46.8269 199.97 46.0673 199.321 45.046C197.413 42.0396 194.987 40.0704 192.192 37.8008L192.171 37.7841C188.455 34.7669 184.181 32.4324 180.482 29.3973C180.103 29.0865 178.847 27.3617 178.869 28.4668C178.881 29.1078 178.595 29.7923 178.575 30.4491C178.424 35.1722 179.985 39.5491 180.461 44.1446C180.932 48.69 180.758 53.3194 181.755 57.7857C182.021 58.9722 181.632 59.8857 180.33 60.4762C178.709 61.2105 177.015 61.9575 175.278 62.343C174.112 62.6006 172.915 62.7241 171.76 63.0361C170.618 63.3439 168.238 64.6611 167.688 63.3266C167.478 62.8193 167.453 62.176 167.45 61.6208C167.441 59.5879 167.332 57.5563 167.313 55.5205C167.251 48.9784 166.032 42.608 166.345 36.0238C166.523 32.2637 166.879 28.5295 167.487 24.777C168.064 21.2187 169.199 17.6707 169.583 14.1143C169.633 13.6436 169.429 9.61301 170.944 10.1408C177.514 12.4256 181.905 17.655 186.479 22.2017C191.875 27.5661 197.139 32.9921 202.861 38.0714Z" fill="#6934D0"/>
<path d="M9.64202 177.581L0.606176 155.683C0.805295 153.678 1.10248 151.676 1.60891 149.677C1.88249 148.598 2.12787 147.521 2.37456 146.44L2.38347 146.4C2.39305 146.358 2.40265 146.314 2.41289 146.268C2.48763 145.924 2.58243 145.486 2.82917 145.217C3.52691 144.457 5.25588 146.368 5.83086 147.003C5.92038 147.102 5.98201 147.171 6.00747 147.193C7.46307 148.47 8.86864 149.79 10.2737 151.109C12.5483 153.244 14.8209 155.377 17.3008 157.328C21.0671 160.291 24.6219 163.469 28.1767 166.647C30.8615 169.048 33.5461 171.448 36.3218 173.755C36.6729 174.047 37.0248 174.342 37.3772 174.636C39.4519 176.372 41.5597 178.135 43.8151 179.644C44.494 180.098 45.324 180.604 46.1127 180.904C46.5678 181.077 46.233 181.216 45.9366 181.339C45.8578 181.371 45.7816 181.403 45.7239 181.434C44.8542 181.897 43.9657 182.292 43.0715 182.69C42.6479 182.878 42.223 183.067 41.7982 183.264C41.6201 183.347 41.4413 183.429 41.2624 183.512C37.7121 185.16 34.0299 186.869 30.2709 187.941C29.4033 188.188 29.2499 188.031 28.9138 187.352C28.3282 186.168 27.3158 185.088 26.3561 184.063C26.0356 183.721 25.721 183.386 25.4304 183.055C21.2957 178.346 17.798 173.22 14.4555 167.993C13.6374 166.713 12.7222 165.512 11.8052 164.309C11.321 163.673 10.836 163.037 10.3649 162.388C10.1305 162.065 9.91467 161.727 9.69849 161.388C9.29105 160.749 8.88204 160.108 8.34469 159.565C8.02635 159.243 7.9264 161.738 7.93081 161.834C8.02242 163.811 8.28958 165.718 8.55933 167.642C8.66649 168.406 8.77389 169.173 8.87088 169.947C9.18038 172.42 9.40658 174.911 9.62726 177.398C9.63274 177.459 9.63774 177.52 9.64202 177.581Z" fill="#C9BDE1"/>
</svg>
